<svg width="270" height="76" viewBox="0 0 270 76" fill="none" xmlns="http://www.w3.org/2000/svg">
<rect x="45" y="13" width="225" height="50" rx="25" fill="#BE1B20"/>
<rect x="45" y="18" width="221" height="40" rx="20" fill="white"/>
<circle cx="38" cy="38" r="38" fill="white"/>
<circle cx="38" cy="38" r="31.0909" fill="#BE1B20"/>
<rect x="56.3204" y="37.6602" width="13.1948" height="13.1948" transform="rotate(135 56.3204 37.6602)" fill="white"/>
<rect x="46.9904" y="28.3301" width="13.1948" height="13.1948" transform="rotate(135 46.9904 28.3301)" fill="white"/>
<rect x="46.9904" y="46.9903" width="13.1948" height="13.1948" transform="rotate(135 46.9904 46.9903)" fill="white"/>
<line x1="46.9212" y1="47.0594" x2="37.5911" y2="37.7293" stroke="#BE1B20" stroke-width="0.5"/>
<line x1="47.0954" y1="28.4351" x2="37.7653" y2="37.7652" stroke="#BE1B20" stroke-width="0.5"/>
<path d="M100.234 38.6094C100.234 39.724 100.042 40.7031 99.6562 41.5469C99.2708 42.3854 98.7188 43.0312 98 43.4844C97.2865 43.9323 96.4635 44.1562 95.5312 44.1562C94.6094 44.1562 93.7865 43.9323 93.0625 43.4844C92.3438 43.0312 91.7865 42.388 91.3906 41.5547C91 40.7214 90.8021 39.7604 90.7969 38.6719V38.0312C90.7969 36.9219 90.9922 35.9427 91.3828 35.0938C91.7786 34.2448 92.3333 33.5964 93.0469 33.1484C93.7656 32.6953 94.5885 32.4688 95.5156 32.4688C96.4427 32.4688 97.263 32.6927 97.9766 33.1406C98.6953 33.5833 99.25 34.224 99.6406 35.0625C100.031 35.8958 100.229 36.8672 100.234 37.9766V38.6094ZM98.2578 38.0156C98.2578 36.7552 98.0182 35.7891 97.5391 35.1172C97.0651 34.4453 96.3906 34.1094 95.5156 34.1094C94.6615 34.1094 93.9922 34.4453 93.5078 35.1172C93.0286 35.7839 92.7839 36.7292 92.7734 37.9531V38.6094C92.7734 39.8594 93.0156 40.8255 93.5 41.5078C93.9896 42.1901 94.6667 42.5312 95.5312 42.5312C96.4062 42.5312 97.0781 42.1979 97.5469 41.5312C98.0208 40.8646 98.2578 39.8906 98.2578 38.6094V38.0156ZM108.406 33.7031H108.578C109.453 33.7031 110.247 33.901 110.961 34.2969C111.68 34.6875 112.237 35.2396 112.633 35.9531C113.034 36.6667 113.234 37.4688 113.234 38.3594C113.234 39.2448 113.034 40.0417 112.633 40.75C112.237 41.4531 111.685 42 110.977 42.3906C110.273 42.7812 109.484 42.9792 108.609 42.9844H108.406V44.4688H106.508V42.9844H106.32C105.44 42.9844 104.641 42.7891 103.922 42.3984C103.203 42.0026 102.646 41.4531 102.25 40.75C101.859 40.0469 101.664 39.2552 101.664 38.375C101.664 37.4844 101.862 36.6823 102.258 35.9688C102.654 35.2552 103.208 34.7005 103.922 34.3047C104.635 33.9036 105.435 33.7031 106.32 33.7031H106.508V32.1562H108.406V33.7031ZM106.32 35.2891C105.445 35.2891 104.76 35.5625 104.266 36.1094C103.776 36.6562 103.531 37.4115 103.531 38.375C103.531 39.3125 103.776 40.0521 104.266 40.5938C104.755 41.1302 105.448 41.3984 106.344 41.3984H106.508V35.2891H106.32ZM108.406 35.2891V41.3984H108.594C109.469 41.3984 110.148 41.125 110.633 40.5781C111.122 40.0312 111.367 39.2917 111.367 38.3594C111.367 37.4062 111.122 36.6562 110.633 36.1094C110.148 35.5625 109.461 35.2891 108.57 35.2891H108.406ZM124.031 38.6094C124.031 39.724 123.839 40.7031 123.453 41.5469C123.068 42.3854 122.516 43.0312 121.797 43.4844C121.083 43.9323 120.26 44.1562 119.328 44.1562C118.406 44.1562 117.583 43.9323 116.859 43.4844C116.141 43.0312 115.583 42.388 115.188 41.5547C114.797 40.7214 114.599 39.7604 114.594 38.6719V38.0312C114.594 36.9219 114.789 35.9427 115.18 35.0938C115.576 34.2448 116.13 33.5964 116.844 33.1484C117.562 32.6953 118.385 32.4688 119.312 32.4688C120.24 32.4688 121.06 32.6927 121.773 33.1406C122.492 33.5833 123.047 34.224 123.438 35.0625C123.828 35.8958 124.026 36.8672 124.031 37.9766V38.6094ZM122.055 38.0156C122.055 36.7552 121.815 35.7891 121.336 35.1172C120.862 34.4453 120.188 34.1094 119.312 34.1094C118.458 34.1094 117.789 34.4453 117.305 35.1172C116.826 35.7839 116.581 36.7292 116.57 37.9531V38.6094C116.57 39.8594 116.812 40.8255 117.297 41.5078C117.786 42.1901 118.464 42.5312 119.328 42.5312C120.203 42.5312 120.875 42.1979 121.344 41.5312C121.818 40.8646 122.055 39.8906 122.055 38.6094V38.0156ZM127.977 39.7734V44H126V32.625H130.352C131.622 32.625 132.63 32.9557 133.375 33.6172C134.125 34.2786 134.5 35.1536 134.5 36.2422C134.5 37.3568 134.133 38.224 133.398 38.8438C132.669 39.4635 131.646 39.7734 130.328 39.7734H127.977ZM127.977 38.1875H130.352C131.055 38.1875 131.591 38.0234 131.961 37.6953C132.331 37.362 132.516 36.8828 132.516 36.2578C132.516 35.6432 132.328 35.1536 131.953 34.7891C131.578 34.4193 131.062 34.2292 130.406 34.2188H127.977V38.1875ZM138.797 32.625L142.078 41.3438L145.352 32.625H147.906V44H145.938V40.25L146.133 35.2344L142.773 44H141.359L138.008 35.2422L138.203 40.25V44H136.234V32.625H138.797ZM157.219 32.625H159.195V44H157.219V35.8984L152.227 44H150.25V32.625H152.227V40.7344L157.219 32.625ZM169.547 34.2188H166V44H164.039V34.2188H160.523V32.625H169.547V34.2188ZM173.117 36.9766H175.445C176.279 36.9766 177.005 37.1198 177.625 37.4062C178.245 37.6927 178.716 38.099 179.039 38.625C179.362 39.151 179.523 39.7604 179.523 40.4531C179.523 41.5156 179.161 42.3698 178.438 43.0156C177.719 43.6615 176.737 43.9896 175.492 44H171.141V32.625H173.117V36.9766ZM173.117 38.5625V42.4219H175.438C176.104 42.4219 176.622 42.2422 176.992 41.8828C177.367 41.5182 177.555 41.0365 177.555 40.4375C177.555 39.8646 177.372 39.4115 177.008 39.0781C176.643 38.7448 176.138 38.5729 175.492 38.5625H173.117ZM190.906 35.7266C190.906 35.2161 190.714 34.8099 190.328 34.5078C189.943 34.2057 189.419 34.0547 188.758 34.0547C188.19 34.0547 187.716 34.2057 187.336 34.5078C186.956 34.8047 186.766 35.1901 186.766 35.6641H184.797C184.797 35.0443 184.969 34.4922 185.312 34.0078C185.656 33.5234 186.133 33.1484 186.742 32.8828C187.352 32.612 188.023 32.4766 188.758 32.4766C190.06 32.4766 191.07 32.7604 191.789 33.3281C192.513 33.8958 192.875 34.6901 192.875 35.7109C192.875 36.2266 192.719 36.7005 192.406 37.1328C192.094 37.5651 191.656 37.9062 191.094 38.1562C191.729 38.375 192.214 38.7083 192.547 39.1562C192.885 39.599 193.055 40.151 193.055 40.8125C193.055 41.8333 192.664 42.6458 191.883 43.25C191.102 43.849 190.06 44.1484 188.758 44.1484C187.956 44.1484 187.229 44.0052 186.578 43.7188C185.932 43.4323 185.445 43.0417 185.117 42.5469C184.794 42.0521 184.633 41.4844 184.633 40.8438H186.602C186.602 41.3333 186.805 41.7474 187.211 42.0859C187.617 42.4193 188.133 42.5859 188.758 42.5859C189.456 42.5859 190.016 42.4219 190.438 42.0938C190.865 41.7656 191.078 41.3385 191.078 40.8125C191.078 40.1719 190.891 39.7083 190.516 39.4219C190.146 39.1302 189.602 38.9844 188.883 38.9844H187.547V37.4219H188.812C190.208 37.4219 190.906 36.8568 190.906 35.7266ZM201.258 41.3516H196.852L195.93 44H193.875L198.172 32.625H199.945L204.25 44H202.188L201.258 41.3516ZM197.406 39.7578H200.703L199.055 35.0391L197.406 39.7578ZM211.156 44V39.75H208.953L206.758 44H204.641L207.18 39.1641C205.857 38.5391 205.195 37.5156 205.195 36.0938C205.195 35.0052 205.552 34.1589 206.266 33.5547C206.984 32.9453 207.984 32.6354 209.266 32.625H213.133V44H211.156ZM207.164 36.1797C207.164 36.8203 207.344 37.3203 207.703 37.6797C208.062 38.0391 208.602 38.2188 209.32 38.2188H211.156V34.2188H209.32C208.591 34.2188 208.049 34.3932 207.695 34.7422C207.341 35.0911 207.164 35.5703 207.164 36.1797ZM215.484 44V32.625H219.383C220.669 32.625 221.648 32.8828 222.32 33.3984C222.992 33.9141 223.328 34.6823 223.328 35.7031C223.328 36.224 223.188 36.6927 222.906 37.1094C222.625 37.526 222.214 37.849 221.672 38.0781C222.286 38.2448 222.76 38.5599 223.094 39.0234C223.432 39.4818 223.602 40.0339 223.602 40.6797C223.602 41.7474 223.258 42.5677 222.57 43.1406C221.888 43.7135 220.909 44 219.633 44H215.484ZM217.461 38.8672V42.4219H219.656C220.276 42.4219 220.76 42.2682 221.109 41.9609C221.458 41.6536 221.633 41.2266 221.633 40.6797C221.633 39.4974 221.029 38.8932 219.82 38.8672H217.461ZM217.461 37.4141H219.398C220.013 37.4141 220.492 37.276 220.836 37C221.185 36.7188 221.359 36.3229 221.359 35.8125C221.359 35.25 221.198 34.8438 220.875 34.5938C220.557 34.3438 220.06 34.2188 219.383 34.2188H217.461V37.4141ZM228.945 39.125H227.602V44H225.633V32.625H227.602V37.4062H228.688L232.031 32.625H234.453L230.547 38.0703L234.797 44H232.422L228.945 39.125ZM239.984 38.5703L242.266 32.625H244.461L240.5 42.0625L240.141 42.7734C239.62 43.7005 238.776 44.1641 237.609 44.1641L236.797 44.1172L236.812 42.5547C236.938 42.5755 237.159 42.5859 237.477 42.5859C238.039 42.5859 238.435 42.3464 238.664 41.8672L239.07 40.9062L235.18 32.625H237.336L239.984 38.5703Z" fill="#4A4182"/>
</svg>
