<svg width="1053" height="258" viewBox="0 0 1053 258" fill="none" xmlns="http://www.w3.org/2000/svg">
<rect x="803" width="250" height="250" rx="4" fill="#BE1B1F"/>
<path d="M891.564 147.489C891.564 149.116 891.157 150.381 890.341 151.283C889.53 152.186 888.379 152.637 886.889 152.637C885.38 152.637 884.22 152.19 883.409 151.297C882.603 150.399 882.199 149.125 882.199 147.476C882.199 145.826 882.605 144.559 883.416 143.675C884.232 142.791 885.394 142.349 886.902 142.349C888.388 142.349 889.536 142.798 890.348 143.695C891.159 144.593 891.564 145.858 891.564 147.489ZM883.936 147.489C883.936 148.72 884.184 149.654 884.681 150.292C885.177 150.925 885.913 151.242 886.889 151.242C887.859 151.242 888.591 150.928 889.083 150.299C889.58 149.67 889.828 148.733 889.828 147.489C889.828 146.263 889.582 145.334 889.09 144.7C888.602 144.067 887.873 143.75 886.902 143.75C885.923 143.75 885.182 144.067 884.681 144.7C884.184 145.334 883.936 146.263 883.936 147.489ZM902.386 148.72C902.386 149.854 902.042 150.759 901.354 151.434C900.67 152.108 899.722 152.491 898.51 152.582V155.863H896.985V152.582C895.787 152.491 894.837 152.104 894.135 151.42C893.438 150.732 893.089 149.832 893.089 148.72C893.089 147.567 893.428 146.658 894.107 145.992C894.786 145.322 895.75 144.944 896.999 144.857V141.863H898.51V144.857C899.722 144.967 900.67 145.361 901.354 146.04C902.042 146.719 902.386 147.612 902.386 148.72ZM894.757 148.72C894.757 149.467 894.944 150.069 895.317 150.524C895.691 150.98 896.252 151.247 896.999 151.324V146.115C896.247 146.202 895.684 146.471 895.311 146.922C894.941 147.373 894.757 147.972 894.757 148.72ZM900.725 148.72C900.725 147.981 900.538 147.389 900.164 146.942C899.795 146.496 899.243 146.229 898.51 146.143V151.324C899.253 151.238 899.806 150.969 900.171 150.518C900.54 150.062 900.725 149.463 900.725 148.72ZM910.951 148.706C910.951 149.941 910.634 150.905 910.001 151.598C909.368 152.29 908.486 152.637 907.355 152.637C906.649 152.637 906.025 152.477 905.482 152.158C904.94 151.839 904.523 151.381 904.231 150.784C903.94 150.187 903.794 149.494 903.794 148.706C903.794 147.48 904.108 146.523 904.737 145.835C905.366 145.147 906.253 144.803 907.396 144.803C908.49 144.803 909.356 145.156 909.994 145.862C910.632 146.564 910.951 147.512 910.951 148.706ZM905.448 148.706C905.448 150.451 906.093 151.324 907.383 151.324C908.659 151.324 909.297 150.451 909.297 148.706C909.297 146.979 908.654 146.115 907.369 146.115C906.695 146.115 906.205 146.339 905.899 146.785C905.599 147.232 905.448 147.872 905.448 148.706ZM916.639 152.637C915.682 152.637 914.939 152.293 914.41 151.604H914.314C914.378 152.243 914.41 152.63 914.41 152.767V155.863H912.804V144.939H914.103C914.139 145.081 914.214 145.418 914.328 145.951H914.41C914.911 145.186 915.663 144.803 916.666 144.803C917.609 144.803 918.343 145.145 918.867 145.828C919.396 146.512 919.66 147.471 919.66 148.706C919.66 149.941 919.391 150.905 918.854 151.598C918.32 152.29 917.582 152.637 916.639 152.637ZM916.249 146.115C915.611 146.115 915.144 146.302 914.848 146.676C914.556 147.049 914.41 147.646 914.41 148.467V148.706C914.41 149.627 914.556 150.294 914.848 150.709C915.139 151.119 915.616 151.324 916.276 151.324C916.832 151.324 917.261 151.096 917.562 150.641C917.862 150.185 918.013 149.535 918.013 148.692C918.013 147.845 917.862 147.204 917.562 146.771C917.265 146.334 916.828 146.115 916.249 146.115ZM925.867 150.962L925.956 150.634C926.143 149.955 926.305 149.433 926.441 149.068L928.137 144.939H930.276V152.5H928.793V146.396L928.67 146.806C928.465 147.539 928.292 148.079 928.15 148.426L926.496 152.5H925.279L923.625 148.398C923.397 147.806 923.188 147.138 922.996 146.396V152.5H921.526V144.939H923.652L925.293 148.945C925.439 149.314 925.63 149.987 925.867 150.962ZM938.787 152.5H937.167V146.197H935.082C934.954 147.82 934.781 149.087 934.562 149.998C934.348 150.91 934.066 151.575 933.715 151.994C933.368 152.413 932.917 152.623 932.361 152.623C932.01 152.623 931.716 152.573 931.479 152.473V151.215C931.648 151.279 931.817 151.311 931.985 151.311C932.45 151.311 932.815 150.789 933.079 149.745C933.348 148.697 933.558 147.095 933.708 144.939H938.787V152.5ZM944.393 152.637C943.217 152.637 942.296 152.295 941.631 151.611C940.97 150.923 940.64 149.978 940.64 148.774C940.64 147.539 940.947 146.569 941.562 145.862C942.178 145.156 943.023 144.803 944.099 144.803C945.097 144.803 945.885 145.106 946.464 145.712C947.043 146.318 947.332 147.152 947.332 148.214V149.082H942.294C942.317 149.816 942.515 150.381 942.889 150.777C943.262 151.169 943.789 151.365 944.468 151.365C944.914 151.365 945.329 151.324 945.712 151.242C946.099 151.156 946.514 151.014 946.956 150.818V152.124C946.564 152.311 946.168 152.443 945.767 152.521C945.366 152.598 944.908 152.637 944.393 152.637ZM944.099 146.02C943.588 146.02 943.178 146.181 942.868 146.505C942.563 146.828 942.381 147.3 942.321 147.92H945.753C945.744 147.296 945.593 146.824 945.302 146.505C945.01 146.181 944.609 146.02 944.099 146.02ZM950.764 144.939V147.975H954.325V144.939H955.932V152.5H954.325V149.239H950.764V152.5H949.157V144.939H950.764ZM959.773 144.939V148.815C959.773 149.267 959.737 149.93 959.664 150.805L963.458 144.939H965.42V152.5H963.875V148.692C963.875 148.483 963.886 148.143 963.909 147.674C963.937 147.204 963.959 146.863 963.978 146.648L960.197 152.5H958.235V144.939H959.773ZM971.012 152.637C969.836 152.637 968.915 152.295 968.25 151.611C967.589 150.923 967.259 149.978 967.259 148.774C967.259 147.539 967.566 146.569 968.182 145.862C968.797 145.156 969.642 144.803 970.718 144.803C971.716 144.803 972.504 145.106 973.083 145.712C973.662 146.318 973.951 147.152 973.951 148.214V149.082H968.913C968.936 149.816 969.134 150.381 969.508 150.777C969.882 151.169 970.408 151.365 971.087 151.365C971.534 151.365 971.948 151.324 972.331 151.242C972.718 151.156 973.133 151.014 973.575 150.818V152.124C973.183 152.311 972.787 152.443 972.386 152.521C971.985 152.598 971.527 152.637 971.012 152.637ZM970.718 146.02C970.207 146.02 969.797 146.181 969.487 146.505C969.182 146.828 969 147.3 968.94 147.92H972.372C972.363 147.296 972.213 146.824 971.921 146.505C971.629 146.181 971.228 146.02 970.718 146.02ZM893.239 174.173H891.742V171.5H886.561V174.173H885.077V170.256H885.692C886.23 169.486 886.656 168.556 886.971 167.467C887.29 166.373 887.479 165.197 887.538 163.939H892.132V170.256H893.239V174.173ZM890.553 170.256V165.17H888.926C888.839 166.109 888.657 167.034 888.379 167.945C888.105 168.857 887.771 169.627 887.374 170.256H890.553ZM897.942 171.637C896.767 171.637 895.846 171.295 895.181 170.611C894.52 169.923 894.189 168.978 894.189 167.774C894.189 166.539 894.497 165.569 895.112 164.862C895.728 164.156 896.573 163.803 897.648 163.803C898.646 163.803 899.435 164.106 900.014 164.712C900.592 165.318 900.882 166.152 900.882 167.214V168.082H895.844C895.867 168.816 896.065 169.381 896.438 169.777C896.812 170.169 897.339 170.365 898.018 170.365C898.464 170.365 898.879 170.324 899.262 170.242C899.649 170.156 900.064 170.014 900.506 169.818V171.124C900.114 171.311 899.717 171.443 899.316 171.521C898.915 171.598 898.457 171.637 897.942 171.637ZM897.648 165.02C897.138 165.02 896.728 165.181 896.418 165.505C896.113 165.828 895.93 166.3 895.871 166.92H899.303C899.294 166.296 899.143 165.824 898.852 165.505C898.56 165.181 898.159 165.02 897.648 165.02ZM907.396 163.939H909.16L906.036 167.583L909.427 171.5H907.581L904.313 167.665V171.5H902.707V163.939H904.313V167.61L907.396 163.939ZM916.892 171.5H915.271V165.197H913.187C913.059 166.82 912.886 168.087 912.667 168.998C912.453 169.91 912.17 170.575 911.819 170.994C911.473 171.413 911.022 171.623 910.466 171.623C910.115 171.623 909.821 171.573 909.584 171.473V170.215C909.753 170.279 909.921 170.311 910.09 170.311C910.555 170.311 910.919 169.789 911.184 168.745C911.452 167.697 911.662 166.095 911.812 163.939H916.892V171.5ZM923.926 171.5L923.604 170.447H923.55C923.185 170.908 922.818 171.222 922.449 171.391C922.08 171.555 921.606 171.637 921.027 171.637C920.285 171.637 919.703 171.436 919.284 171.035C918.869 170.634 918.662 170.067 918.662 169.333C918.662 168.554 918.951 167.966 919.53 167.569C920.109 167.173 920.991 166.956 922.176 166.92L923.481 166.879V166.476C923.481 165.993 923.368 165.632 923.14 165.396C922.916 165.154 922.568 165.033 922.094 165.033C921.706 165.033 921.335 165.09 920.979 165.204C920.624 165.318 920.282 165.452 919.954 165.607L919.435 164.459C919.845 164.245 920.294 164.083 920.781 163.974C921.269 163.86 921.729 163.803 922.162 163.803C923.124 163.803 923.848 164.012 924.336 164.432C924.828 164.851 925.074 165.509 925.074 166.407V171.5H923.926ZM921.533 170.406C922.117 170.406 922.584 170.244 922.935 169.921C923.29 169.593 923.468 169.135 923.468 168.547V167.891L922.497 167.932C921.741 167.959 921.189 168.087 920.843 168.314C920.501 168.538 920.33 168.882 920.33 169.347C920.33 169.684 920.43 169.946 920.631 170.133C920.831 170.315 921.132 170.406 921.533 170.406ZM931.151 171.637C930.194 171.637 929.451 171.293 928.923 170.604H928.827C928.891 171.243 928.923 171.63 928.923 171.767V174.863H927.316V163.939H928.615C928.652 164.081 928.727 164.418 928.841 164.951H928.923C929.424 164.186 930.176 163.803 931.179 163.803C932.122 163.803 932.856 164.145 933.38 164.828C933.909 165.512 934.173 166.471 934.173 167.706C934.173 168.941 933.904 169.905 933.366 170.598C932.833 171.29 932.095 171.637 931.151 171.637ZM930.762 165.115C930.124 165.115 929.657 165.302 929.36 165.676C929.069 166.049 928.923 166.646 928.923 167.467V167.706C928.923 168.627 929.069 169.294 929.36 169.709C929.652 170.119 930.128 170.324 930.789 170.324C931.345 170.324 931.773 170.096 932.074 169.641C932.375 169.185 932.525 168.535 932.525 167.692C932.525 166.845 932.375 166.204 932.074 165.771C931.778 165.334 931.34 165.115 930.762 165.115ZM940.77 171.5L940.448 170.447H940.394C940.029 170.908 939.662 171.222 939.293 171.391C938.924 171.555 938.45 171.637 937.871 171.637C937.128 171.637 936.547 171.436 936.128 171.035C935.713 170.634 935.506 170.067 935.506 169.333C935.506 168.554 935.795 167.966 936.374 167.569C936.953 167.173 937.835 166.956 939.02 166.92L940.325 166.879V166.476C940.325 165.993 940.211 165.632 939.983 165.396C939.76 165.154 939.411 165.033 938.938 165.033C938.55 165.033 938.179 165.09 937.823 165.204C937.468 165.318 937.126 165.452 936.798 165.607L936.278 164.459C936.688 164.245 937.137 164.083 937.625 163.974C938.113 163.86 938.573 163.803 939.006 163.803C939.967 163.803 940.692 164.012 941.18 164.432C941.672 164.851 941.918 165.509 941.918 166.407V171.5H940.77ZM938.377 170.406C938.96 170.406 939.427 170.244 939.778 169.921C940.134 169.593 940.312 169.135 940.312 168.547V167.891L939.341 167.932C938.584 167.959 938.033 168.087 937.687 168.314C937.345 168.538 937.174 168.882 937.174 169.347C937.174 169.684 937.274 169.946 937.475 170.133C937.675 170.315 937.976 170.406 938.377 170.406ZM950.894 170.256H951.987V174.159H950.477V171.5H944.16V163.939H945.767V170.229H949.287V163.939H950.894V170.256ZM954.899 163.939V167.815C954.899 168.267 954.863 168.93 954.79 169.805L958.584 163.939H960.546V171.5H959.001V167.692C959.001 167.483 959.012 167.143 959.035 166.674C959.062 166.204 959.085 165.863 959.104 165.648L955.323 171.5H953.361V163.939H954.899ZM964.374 163.939V167.815C964.374 168.267 964.338 168.93 964.265 169.805L968.059 163.939H970.021V171.5H968.476V167.692C968.476 167.483 968.487 167.143 968.51 166.674C968.537 166.204 968.56 165.863 968.578 165.648L964.798 171.5H962.836V163.939H964.374ZM864.439 190.637C863.296 190.637 862.425 190.304 861.828 189.639C861.236 188.969 860.939 188.009 860.939 186.761C860.939 185.489 861.249 184.512 861.869 183.828C862.493 183.145 863.394 182.803 864.569 182.803C865.367 182.803 866.085 182.951 866.723 183.247L866.237 184.539C865.558 184.275 864.998 184.143 864.556 184.143C863.248 184.143 862.594 185.011 862.594 186.747C862.594 187.595 862.756 188.233 863.079 188.661C863.407 189.085 863.886 189.297 864.515 189.297C865.23 189.297 865.907 189.119 866.545 188.764V190.165C866.258 190.334 865.95 190.454 865.622 190.527C865.299 190.6 864.904 190.637 864.439 190.637ZM875.028 186.706C875.028 187.941 874.712 188.905 874.078 189.598C873.445 190.29 872.563 190.637 871.433 190.637C870.726 190.637 870.102 190.477 869.56 190.158C869.017 189.839 868.6 189.381 868.309 188.784C868.017 188.187 867.871 187.494 867.871 186.706C867.871 185.48 868.186 184.523 868.814 183.835C869.443 183.147 870.33 182.803 871.474 182.803C872.567 182.803 873.433 183.156 874.071 183.862C874.709 184.564 875.028 185.512 875.028 186.706ZM869.525 186.706C869.525 188.451 870.17 189.324 871.46 189.324C872.736 189.324 873.374 188.451 873.374 186.706C873.374 184.979 872.731 184.115 871.446 184.115C870.772 184.115 870.282 184.339 869.977 184.785C869.676 185.232 869.525 185.872 869.525 186.706ZM883.587 186.706C883.587 187.941 883.27 188.905 882.637 189.598C882.003 190.29 881.121 190.637 879.991 190.637C879.285 190.637 878.66 190.477 878.118 190.158C877.576 189.839 877.159 189.381 876.867 188.784C876.576 188.187 876.43 187.494 876.43 186.706C876.43 185.48 876.744 184.523 877.373 183.835C878.002 183.147 878.888 182.803 880.032 182.803C881.126 182.803 881.992 183.156 882.63 183.862C883.268 184.564 883.587 185.512 883.587 186.706ZM878.084 186.706C878.084 188.451 878.729 189.324 880.019 189.324C881.295 189.324 881.933 188.451 881.933 186.706C881.933 184.979 881.29 184.115 880.005 184.115C879.33 184.115 878.84 184.339 878.535 184.785C878.234 185.232 878.084 185.872 878.084 186.706ZM891.12 182.939V184.197H888.659V190.5H887.046V184.197H884.585V182.939H891.12ZM899.139 184.874C899.139 185.767 898.617 186.307 897.573 186.494V186.549C898.157 186.617 898.603 186.802 898.913 187.103C899.223 187.403 899.378 187.793 899.378 188.271C899.378 188.987 899.104 189.538 898.558 189.926C898.015 190.309 897.225 190.5 896.186 190.5H892.576V182.939H896.172C898.15 182.939 899.139 183.584 899.139 184.874ZM897.73 188.176C897.73 187.811 897.589 187.554 897.307 187.403C897.024 187.248 896.6 187.171 896.035 187.171H894.183V189.311H896.076C897.179 189.311 897.73 188.932 897.73 188.176ZM897.532 185.011C897.532 184.71 897.414 184.493 897.177 184.361C896.944 184.225 896.596 184.156 896.131 184.156H894.183V185.975H895.892C896.429 185.975 896.837 185.906 897.115 185.77C897.393 185.628 897.532 185.375 897.532 185.011ZM904.341 190.637C903.165 190.637 902.244 190.295 901.579 189.611C900.918 188.923 900.588 187.978 900.588 186.774C900.588 185.539 900.896 184.569 901.511 183.862C902.126 183.156 902.971 182.803 904.047 182.803C905.045 182.803 905.833 183.106 906.412 183.712C906.991 184.318 907.28 185.152 907.28 186.214V187.082H902.242C902.265 187.816 902.463 188.381 902.837 188.777C903.211 189.169 903.737 189.365 904.416 189.365C904.863 189.365 905.277 189.324 905.66 189.242C906.048 189.156 906.462 189.014 906.904 188.818V190.124C906.512 190.311 906.116 190.443 905.715 190.521C905.314 190.598 904.856 190.637 904.341 190.637ZM904.047 184.02C903.536 184.02 903.126 184.181 902.816 184.505C902.511 184.828 902.329 185.3 902.27 185.92H905.701C905.692 185.296 905.542 184.824 905.25 184.505C904.958 184.181 904.557 184.02 904.047 184.02ZM914.786 182.939V184.197H912.325V190.5H910.712V184.197H908.251V182.939H914.786ZM919.291 190.637C918.147 190.637 917.277 190.304 916.68 189.639C916.087 188.969 915.791 188.009 915.791 186.761C915.791 185.489 916.101 184.512 916.721 183.828C917.345 183.145 918.245 182.803 919.421 182.803C920.218 182.803 920.936 182.951 921.574 183.247L921.089 184.539C920.41 184.275 919.849 184.143 919.407 184.143C918.099 184.143 917.445 185.011 917.445 186.747C917.445 187.595 917.607 188.233 917.931 188.661C918.259 189.085 918.737 189.297 919.366 189.297C920.082 189.297 920.758 189.119 921.396 188.764V190.165C921.109 190.334 920.802 190.454 920.474 190.527C920.15 190.6 919.756 190.637 919.291 190.637ZM928.854 182.939V184.197H926.394V190.5H924.78V184.197H922.319V182.939H928.854ZM936.873 184.874C936.873 185.767 936.351 186.307 935.308 186.494V186.549C935.891 186.617 936.338 186.802 936.647 187.103C936.957 187.403 937.112 187.793 937.112 188.271C937.112 188.987 936.839 189.538 936.292 189.926C935.75 190.309 934.959 190.5 933.92 190.5H930.311V182.939H933.906C935.884 182.939 936.873 183.584 936.873 184.874ZM935.465 188.176C935.465 187.811 935.324 187.554 935.041 187.403C934.758 187.248 934.335 187.171 933.77 187.171H931.917V189.311H933.811C934.913 189.311 935.465 188.932 935.465 188.176ZM935.267 185.011C935.267 184.71 935.148 184.493 934.911 184.361C934.679 184.225 934.33 184.156 933.865 184.156H931.917V185.975H933.626C934.164 185.975 934.572 185.906 934.85 185.77C935.128 185.628 935.267 185.375 935.267 185.011ZM940.312 182.939V186.815C940.312 187.267 940.275 187.93 940.202 188.805L943.996 182.939H945.958V190.5H944.413V186.692C944.413 186.483 944.424 186.143 944.447 185.674C944.475 185.204 944.497 184.863 944.516 184.648L940.735 190.5H938.773V182.939H940.312ZM949.021 190.5H947.223L949.328 187.403C948.818 187.257 948.417 186.998 948.125 186.624C947.833 186.246 947.688 185.779 947.688 185.223C947.688 184.507 947.943 183.949 948.453 183.548C948.964 183.142 949.661 182.939 950.545 182.939H953.99V190.5H952.377V187.588H950.853L949.021 190.5ZM949.253 185.236C949.253 185.624 949.399 185.915 949.69 186.111C949.987 186.303 950.383 186.398 950.88 186.398H952.377V184.156H950.627C950.189 184.156 949.85 184.25 949.608 184.437C949.371 184.623 949.253 184.89 949.253 185.236ZM963.547 190.5H961.913V181.907H958.974V180.506H966.486V181.907H963.547V190.5ZM974.642 183.527C974.642 184.571 974.3 185.371 973.616 185.927C972.933 186.483 971.96 186.761 970.697 186.761H969.658V190.5H968.024V180.506H970.902C972.151 180.506 973.085 180.761 973.705 181.271C974.329 181.782 974.642 182.534 974.642 183.527ZM969.658 185.387H970.526C971.365 185.387 971.98 185.241 972.372 184.949C972.764 184.658 972.96 184.202 972.96 183.582C972.96 183.008 972.785 182.579 972.434 182.297C972.083 182.014 971.536 181.873 970.793 181.873H969.658V185.387ZM983.727 190.5H982.093V181.907H979.153V180.506H986.666V181.907H983.727V190.5ZM992.456 181.764C991.517 181.764 990.779 182.096 990.241 182.762C989.703 183.427 989.435 184.345 989.435 185.517C989.435 186.743 989.692 187.67 990.207 188.299C990.727 188.928 991.476 189.242 992.456 189.242C992.88 189.242 993.29 189.201 993.687 189.119C994.083 189.033 994.495 188.923 994.924 188.791V190.192C994.14 190.489 993.251 190.637 992.258 190.637C990.795 190.637 989.672 190.195 988.888 189.311C988.104 188.422 987.712 187.153 987.712 185.503C987.712 184.464 987.901 183.555 988.279 182.775C988.662 181.996 989.214 181.399 989.934 180.984C990.654 180.57 991.499 180.362 992.47 180.362C993.491 180.362 994.434 180.576 995.3 181.005L994.712 182.365C994.375 182.206 994.017 182.067 993.639 181.948C993.265 181.825 992.871 181.764 992.456 181.764Z" fill="white"/>
<circle cx="817" cy="233" r="25" fill="#7C090C"/>
<path d="M821.414 227.699C821.414 228.77 821.09 229.68 820.441 230.43C819.793 231.18 818.883 231.695 817.711 231.977V232.047C819.094 232.219 820.141 232.641 820.852 233.312C821.562 233.977 821.918 234.875 821.918 236.008C821.918 237.656 821.32 238.941 820.125 239.863C818.93 240.777 817.223 241.234 815.004 241.234C813.145 241.234 811.496 240.926 810.059 240.309V237.227C810.723 237.562 811.453 237.836 812.25 238.047C813.047 238.258 813.836 238.363 814.617 238.363C815.812 238.363 816.695 238.16 817.266 237.754C817.836 237.348 818.121 236.695 818.121 235.797C818.121 234.992 817.793 234.422 817.137 234.086C816.48 233.75 815.434 233.582 813.996 233.582H812.695V230.805H814.02C815.348 230.805 816.316 230.633 816.926 230.289C817.543 229.938 817.852 229.34 817.852 228.496C817.852 227.199 817.039 226.551 815.414 226.551C814.852 226.551 814.277 226.645 813.691 226.832C813.113 227.02 812.469 227.344 811.758 227.805L810.082 225.309C811.645 224.184 813.508 223.621 815.672 223.621C817.445 223.621 818.844 223.98 819.867 224.699C820.898 225.418 821.414 226.418 821.414 227.699Z" fill="white"/>
<path d="M981.597 19H874.841C873.823 19 873 19.8217 873 20.8383V101.727C873 102.744 873.823 103.565 874.841 103.565H950.307V114.596C950.307 115.338 950.754 116.011 951.442 116.294C952.131 116.581 952.922 116.421 953.448 115.895L959.51 109.842L965.571 115.895C965.922 116.247 966.393 116.434 966.872 116.434C967.11 116.434 967.349 116.39 967.577 116.294C968.265 116.011 968.713 115.338 968.713 114.596V103.565H981.597C982.615 103.565 983.438 102.744 983.438 101.727V20.8383C983.438 19.8217 982.615 19 981.597 19ZM952.147 79.6666C952.147 80.6832 951.324 81.5049 950.307 81.5049C949.289 81.5049 948.466 80.6832 948.466 79.6666C948.466 73.5833 953.419 68.6363 959.51 68.6363C960.528 68.6363 961.35 69.4579 961.35 70.4746C961.35 71.4912 960.528 72.3129 959.51 72.3129C955.449 72.3131 952.147 75.611 952.147 79.6666ZM965.032 101.727V110.158L960.811 105.943C960.452 105.584 959.981 105.404 959.51 105.404C959.038 105.404 958.567 105.584 958.208 105.943L953.988 110.158V101.727V97.2028C954.185 97.2635 954.387 97.3075 954.586 97.3626C954.906 97.451 955.227 97.5391 955.55 97.6108C955.769 97.6586 955.99 97.6972 956.211 97.7377C956.555 97.8021 956.901 97.8536 957.247 97.8976C957.452 97.9215 957.654 97.949 957.86 97.9673C958.361 98.0115 958.864 98.0391 959.368 98.0428C959.416 98.0428 959.462 98.0501 959.51 98.0501C959.557 98.0501 959.603 98.0428 959.651 98.0428C960.156 98.0391 960.658 98.0115 961.159 97.9673C961.365 97.949 961.567 97.9215 961.772 97.8976C962.118 97.8534 962.464 97.8019 962.808 97.7377C963.029 97.6972 963.25 97.6586 963.469 97.6108C963.793 97.5391 964.113 97.451 964.433 97.3626C964.632 97.3075 964.834 97.2633 965.031 97.2028V101.727H965.032ZM959.51 90.6968C958.492 90.6968 957.669 89.8752 957.669 88.8585C957.669 87.8419 958.492 87.0202 959.51 87.0202C963.57 87.0202 966.872 83.7221 966.872 79.6668C966.872 78.6501 967.695 77.8285 968.713 77.8285C969.731 77.8285 970.553 78.6501 970.553 79.6668C970.554 85.7498 965.6 90.6968 959.51 90.6968ZM979.757 99.8888H968.713V95.5631C974.205 92.3772 977.916 86.4521 977.916 79.6666C977.916 69.5297 969.659 61.2828 959.51 61.2828C949.361 61.2828 941.104 69.5299 941.104 79.6666C941.104 86.4521 944.814 92.377 950.307 95.5631V99.8888H876.681V22.6768H979.757V99.8888H979.757Z" fill="white"/>
<path d="M882.203 88.8585C885.248 88.8585 887.725 91.333 887.725 94.3737C887.725 95.3903 888.548 96.212 889.566 96.212H944.949C940.345 92.1657 937.422 86.2572 937.422 79.6666C937.422 70.6273 942.898 62.849 950.708 59.4443L959.51 57.606C966.108 57.606 972.024 60.5254 976.075 65.1232V35.5454C976.075 34.5288 975.253 33.7071 974.235 33.7071C971.191 33.7071 968.713 31.2326 968.713 28.192C968.713 27.1753 967.89 26.3537 966.872 26.3537H889.566C888.548 26.3537 887.725 27.1753 887.725 28.192C887.725 31.2326 885.248 33.7071 882.203 33.7071C881.185 33.7071 880.363 34.5288 880.363 35.5454V87.02C880.362 88.0367 881.185 88.8585 882.203 88.8585ZM935.581 77.8283H920.856C919.838 77.8283 919.016 77.0066 919.016 75.9899C919.016 74.9733 919.838 74.1516 920.856 74.1516H935.581C936.599 74.1516 937.422 74.9733 937.422 75.9899C937.422 77.0066 936.599 77.8283 935.581 77.8283ZM935.581 68.6363H909.813C908.795 68.6363 907.972 67.8146 907.972 66.798C907.972 65.7813 908.795 64.9597 909.813 64.9597H935.582C936.6 64.9597 937.422 65.7813 937.422 66.798C937.422 67.8146 936.599 68.6363 935.581 68.6363ZM917.175 37.3837H939.263C940.281 37.3837 941.103 38.2054 941.103 39.222C941.103 40.2387 940.281 41.0604 939.263 41.0604H917.175C916.157 41.0604 915.335 40.2387 915.335 39.222C915.335 38.2056 916.157 37.3837 917.175 37.3837ZM898.769 46.5757H957.669C958.687 46.5757 959.51 47.3974 959.51 48.414C959.51 49.4307 958.687 50.2523 957.669 50.2523H898.769C897.751 50.2523 896.928 49.4307 896.928 48.414C896.928 47.3974 897.751 46.5757 898.769 46.5757ZM898.769 64.9594H902.45C903.468 64.9594 904.291 65.7811 904.291 66.7978C904.291 67.8144 903.468 68.6361 902.45 68.6361H898.769C897.751 68.6361 896.928 67.8144 896.928 66.7978C896.928 65.7811 897.751 64.9594 898.769 64.9594ZM898.769 74.1514H913.494C914.512 74.1514 915.335 74.9731 915.335 75.9897C915.335 77.0064 914.512 77.828 913.494 77.828H898.769C897.751 77.828 896.928 77.0064 896.928 75.9897C896.928 74.9731 897.751 74.1514 898.769 74.1514Z" fill="white"/>
<rect x="407" width="250" height="250" rx="4" fill="#BE1B1F"/>
<path d="M450.933 142.506H453.899C455.276 142.506 456.269 142.706 456.88 143.107C457.495 143.508 457.803 144.142 457.803 145.008C457.803 145.591 457.652 146.076 457.352 146.464C457.051 146.851 456.618 147.095 456.053 147.195V147.264C456.755 147.396 457.27 147.658 457.598 148.05C457.93 148.437 458.097 148.964 458.097 149.629C458.097 150.527 457.782 151.231 457.153 151.741C456.529 152.247 455.659 152.5 454.542 152.5H450.933V142.506ZM452.566 146.635H454.139C454.822 146.635 455.321 146.528 455.636 146.313C455.95 146.095 456.107 145.726 456.107 145.206C456.107 144.737 455.937 144.397 455.595 144.188C455.257 143.978 454.72 143.873 453.981 143.873H452.566V146.635ZM452.566 147.961V151.126H454.303C454.986 151.126 455.501 150.996 455.848 150.736C456.199 150.472 456.374 150.057 456.374 149.492C456.374 148.973 456.196 148.588 455.841 148.337C455.485 148.086 454.945 147.961 454.221 147.961H452.566ZM461.61 144.939V147.975H465.172V144.939H466.778V152.5H465.172V149.239H461.61V152.5H460.004V144.939H461.61ZM472.384 152.637C471.208 152.637 470.287 152.295 469.622 151.611C468.961 150.923 468.631 149.978 468.631 148.774C468.631 147.539 468.938 146.569 469.554 145.862C470.169 145.156 471.014 144.803 472.09 144.803C473.088 144.803 473.876 145.106 474.455 145.712C475.034 146.318 475.323 147.152 475.323 148.214V149.082H470.285C470.308 149.816 470.506 150.381 470.88 150.777C471.254 151.169 471.78 151.365 472.459 151.365C472.906 151.365 473.32 151.324 473.703 151.242C474.09 151.156 474.505 151.014 474.947 150.818V152.124C474.555 152.311 474.159 152.443 473.758 152.521C473.357 152.598 472.899 152.637 472.384 152.637ZM472.09 146.02C471.579 146.02 471.169 146.181 470.859 146.505C470.554 146.828 470.372 147.3 470.312 147.92H473.744C473.735 147.296 473.585 146.824 473.293 146.505C473.001 146.181 472.6 146.02 472.09 146.02ZM480.197 152.637C479.053 152.637 478.183 152.304 477.586 151.639C476.993 150.969 476.697 150.009 476.697 148.761C476.697 147.489 477.007 146.512 477.627 145.828C478.251 145.145 479.151 144.803 480.327 144.803C481.125 144.803 481.842 144.951 482.48 145.247L481.995 146.539C481.316 146.275 480.756 146.143 480.313 146.143C479.006 146.143 478.352 147.011 478.352 148.747C478.352 149.595 478.513 150.233 478.837 150.661C479.165 151.085 479.644 151.297 480.272 151.297C480.988 151.297 481.665 151.119 482.303 150.764V152.165C482.016 152.334 481.708 152.454 481.38 152.527C481.056 152.6 480.662 152.637 480.197 152.637ZM487.382 152.637C486.206 152.637 485.285 152.295 484.62 151.611C483.959 150.923 483.629 149.978 483.629 148.774C483.629 147.539 483.937 146.569 484.552 145.862C485.167 145.156 486.012 144.803 487.088 144.803C488.086 144.803 488.874 145.106 489.453 145.712C490.032 146.318 490.321 147.152 490.321 148.214V149.082H485.283C485.306 149.816 485.504 150.381 485.878 150.777C486.252 151.169 486.778 151.365 487.457 151.365C487.904 151.365 488.318 151.324 488.701 151.242C489.089 151.156 489.503 151.014 489.945 150.818V152.124C489.553 152.311 489.157 152.443 488.756 152.521C488.355 152.598 487.897 152.637 487.382 152.637ZM487.088 146.02C486.577 146.02 486.167 146.181 485.857 146.505C485.552 146.828 485.37 147.3 485.311 147.92H488.742C488.733 147.296 488.583 146.824 488.291 146.505C487.999 146.181 487.598 146.02 487.088 146.02ZM493.753 144.939V147.975H497.314V144.939H498.921V152.5H497.314V149.239H493.753V152.5H492.146V144.939H493.753ZM502.763 144.939V148.815C502.763 149.267 502.726 149.93 502.653 150.805L506.447 144.939H508.409V152.5H506.864V148.692C506.864 148.483 506.876 148.143 506.898 147.674C506.926 147.204 506.949 146.863 506.967 146.648L503.187 152.5H501.225V144.939H502.763ZM514.001 152.637C512.825 152.637 511.905 152.295 511.239 151.611C510.578 150.923 510.248 149.978 510.248 148.774C510.248 147.539 510.556 146.569 511.171 145.862C511.786 145.156 512.632 144.803 513.707 144.803C514.705 144.803 515.493 145.106 516.072 145.712C516.651 146.318 516.94 147.152 516.94 148.214V149.082H511.902C511.925 149.816 512.123 150.381 512.497 150.777C512.871 151.169 513.397 151.365 514.076 151.365C514.523 151.365 514.938 151.324 515.32 151.242C515.708 151.156 516.122 151.014 516.564 150.818V152.124C516.173 152.311 515.776 152.443 515.375 152.521C514.974 152.598 514.516 152.637 514.001 152.637ZM513.707 146.02C513.197 146.02 512.786 146.181 512.477 146.505C512.171 146.828 511.989 147.3 511.93 147.92H515.361C515.352 147.296 515.202 146.824 514.91 146.505C514.618 146.181 514.217 146.02 513.707 146.02ZM523.94 144.939V148.815C523.94 149.267 523.904 149.93 523.831 150.805L527.625 144.939H529.587V152.5H528.042V148.692C528.042 148.483 528.053 148.143 528.076 147.674C528.104 147.204 528.126 146.863 528.145 146.648L524.364 152.5H522.402V144.939H523.94ZM533.545 147.961C534.279 147.961 534.819 147.881 535.165 147.722C535.511 147.558 535.685 147.307 535.685 146.97C535.685 146.354 535.138 146.047 534.044 146.047C533.315 146.047 532.57 146.211 531.809 146.539L531.289 145.343C532.169 144.983 533.139 144.803 534.201 144.803C535.14 144.803 535.869 144.976 536.389 145.322C536.908 145.664 537.168 146.156 537.168 146.799C537.168 147.646 536.683 148.202 535.712 148.467V148.521C536.318 148.686 536.751 148.92 537.011 149.226C537.275 149.531 537.407 149.909 537.407 150.36C537.407 151.053 537.102 151.607 536.491 152.021C535.885 152.432 535.037 152.637 533.948 152.637C532.759 152.637 531.85 152.479 531.221 152.165V150.777C532.055 151.169 532.918 151.365 533.812 151.365C534.454 151.365 534.949 151.276 535.295 151.099C535.646 150.916 535.821 150.641 535.821 150.271C535.821 149.893 535.646 149.615 535.295 149.438C534.944 149.26 534.402 149.171 533.668 149.171H532.745V147.961H533.545ZM543.491 150.962L543.58 150.634C543.767 149.955 543.929 149.433 544.065 149.068L545.761 144.939H547.9V152.5H546.417V146.396L546.294 146.806C546.089 147.539 545.916 148.079 545.774 148.426L544.12 152.5H542.903L541.249 148.398C541.021 147.806 540.812 147.138 540.62 146.396V152.5H539.15V144.939H541.276L542.917 148.945C543.063 149.314 543.254 149.987 543.491 150.962ZM553.499 152.637C552.323 152.637 551.403 152.295 550.737 151.611C550.076 150.923 549.746 149.978 549.746 148.774C549.746 147.539 550.054 146.569 550.669 145.862C551.284 145.156 552.13 144.803 553.205 144.803C554.203 144.803 554.992 145.106 555.57 145.712C556.149 146.318 556.438 147.152 556.438 148.214V149.082H551.4C551.423 149.816 551.621 150.381 551.995 150.777C552.369 151.169 552.895 151.365 553.574 151.365C554.021 151.365 554.436 151.324 554.818 151.242C555.206 151.156 555.62 151.014 556.062 150.818V152.124C555.671 152.311 555.274 152.443 554.873 152.521C554.472 152.598 554.014 152.637 553.499 152.637ZM553.205 146.02C552.695 146.02 552.285 146.181 551.975 146.505C551.669 146.828 551.487 147.3 551.428 147.92H554.859C554.85 147.296 554.7 146.824 554.408 146.505C554.117 146.181 553.715 146.02 553.205 146.02ZM559.87 144.939V147.975H563.432V144.939H565.038V152.5H563.432V149.239H559.87V152.5H558.264V144.939H559.87ZM570.644 152.637C569.468 152.637 568.547 152.295 567.882 151.611C567.221 150.923 566.891 149.978 566.891 148.774C566.891 147.539 567.198 146.569 567.813 145.862C568.429 145.156 569.274 144.803 570.35 144.803C571.348 144.803 572.136 145.106 572.715 145.712C573.294 146.318 573.583 147.152 573.583 148.214V149.082H568.545C568.568 149.816 568.766 150.381 569.14 150.777C569.513 151.169 570.04 151.365 570.719 151.365C571.165 151.365 571.58 151.324 571.963 151.242C572.35 151.156 572.765 151.014 573.207 150.818V152.124C572.815 152.311 572.419 152.443 572.018 152.521C571.617 152.598 571.159 152.637 570.644 152.637ZM570.35 146.02C569.839 146.02 569.429 146.181 569.119 146.505C568.814 146.828 568.632 147.3 568.572 147.92H572.004C571.995 147.296 571.844 146.824 571.553 146.505C571.261 146.181 570.86 146.02 570.35 146.02ZM577.015 144.939V147.975H580.576V144.939H582.183V152.5H580.576V149.239H577.015V152.5H575.408V144.939H577.015ZM586.024 144.939V148.815C586.024 149.267 585.988 149.93 585.915 150.805L589.709 144.939H591.671V152.5H590.126V148.692C590.126 148.483 590.137 148.143 590.16 147.674C590.188 147.204 590.21 146.863 590.229 146.648L586.448 152.5H584.486V144.939H586.024ZM595.499 144.939V148.815C595.499 149.267 595.463 149.93 595.39 150.805L599.184 144.939H601.146V152.5H599.601V148.692C599.601 148.483 599.612 148.143 599.635 147.674C599.662 147.204 599.685 146.863 599.703 146.648L595.923 152.5H593.961V144.939H595.499ZM597.502 144.017C596.536 144.017 595.827 143.843 595.376 143.497C594.929 143.146 594.681 142.563 594.631 141.747H596.087C596.114 142.075 596.176 142.33 596.271 142.513C596.372 142.695 596.513 142.827 596.695 142.909C596.882 142.987 597.165 143.025 597.543 143.025C597.99 143.025 598.329 142.927 598.562 142.731C598.794 142.531 598.935 142.203 598.985 141.747H600.469C600.4 142.531 600.125 143.105 599.642 143.47C599.159 143.834 598.445 144.017 597.502 144.017ZM613.635 146.874C613.635 147.767 613.113 148.307 612.069 148.494V148.549C612.653 148.617 613.099 148.802 613.409 149.103C613.719 149.403 613.874 149.793 613.874 150.271C613.874 150.987 613.601 151.538 613.054 151.926C612.511 152.309 611.721 152.5 610.682 152.5H607.072V144.939H610.668C612.646 144.939 613.635 145.584 613.635 146.874ZM612.227 150.176C612.227 149.811 612.085 149.554 611.803 149.403C611.52 149.248 611.096 149.171 610.531 149.171H608.679V151.311H610.572C611.675 151.311 612.227 150.932 612.227 150.176ZM612.028 147.011C612.028 146.71 611.91 146.493 611.673 146.361C611.44 146.225 611.092 146.156 610.627 146.156H608.679V147.975H610.388C610.925 147.975 611.333 147.906 611.611 147.77C611.889 147.628 612.028 147.375 612.028 147.011ZM446.811 162.764C445.872 162.764 445.133 163.096 444.596 163.762C444.058 164.427 443.789 165.345 443.789 166.517C443.789 167.743 444.047 168.67 444.562 169.299C445.081 169.928 445.831 170.242 446.811 170.242C447.234 170.242 447.645 170.201 448.041 170.119C448.438 170.033 448.85 169.923 449.278 169.791V171.192C448.494 171.489 447.606 171.637 446.612 171.637C445.149 171.637 444.026 171.195 443.242 170.311C442.458 169.422 442.066 168.153 442.066 166.503C442.066 165.464 442.256 164.555 442.634 163.775C443.017 162.996 443.568 162.399 444.288 161.984C445.008 161.57 445.854 161.362 446.824 161.362C447.845 161.362 448.788 161.576 449.654 162.005L449.066 163.365C448.729 163.206 448.371 163.067 447.993 162.948C447.619 162.825 447.225 162.764 446.811 162.764ZM457.365 161.506V162.907H453.065V171.5H451.432V161.506H457.365ZM465.609 164.527C465.609 165.571 465.268 166.371 464.584 166.927C463.9 167.483 462.927 167.761 461.665 167.761H460.626V171.5H458.992V161.506H461.87C463.119 161.506 464.053 161.761 464.673 162.271C465.297 162.782 465.609 163.534 465.609 164.527ZM460.626 166.387H461.494C462.333 166.387 462.948 166.241 463.34 165.949C463.732 165.658 463.928 165.202 463.928 164.582C463.928 164.008 463.752 163.579 463.401 163.297C463.05 163.014 462.504 162.873 461.761 162.873H460.626V166.387ZM470.483 167.665C470.483 166.457 470.659 165.327 471.01 164.274C471.365 163.222 471.876 162.299 472.541 161.506H473.942C473.309 162.363 472.824 163.324 472.486 164.391C472.149 165.452 471.98 166.539 471.98 167.651C471.98 168.763 472.149 169.841 472.486 170.885C472.824 171.928 473.304 172.872 473.929 173.715H472.541C471.871 172.94 471.361 172.035 471.01 171.001C470.659 169.966 470.483 168.854 470.483 167.665ZM479.855 169.962L479.944 169.634C480.131 168.955 480.293 168.433 480.43 168.068L482.125 163.939H484.265V171.5H482.781V165.396L482.658 165.806C482.453 166.539 482.28 167.079 482.139 167.426L480.484 171.5H479.268L477.613 167.398C477.385 166.806 477.176 166.138 476.984 165.396V171.5H475.515V163.939H477.641L479.281 167.945C479.427 168.314 479.618 168.987 479.855 169.962ZM489.863 171.637C488.688 171.637 487.767 171.295 487.102 170.611C486.441 169.923 486.11 168.978 486.11 167.774C486.11 166.539 486.418 165.569 487.033 164.862C487.648 164.156 488.494 163.803 489.569 163.803C490.567 163.803 491.356 164.106 491.935 164.712C492.513 165.318 492.803 166.152 492.803 167.214V168.082H487.765C487.787 168.816 487.986 169.381 488.359 169.777C488.733 170.169 489.259 170.365 489.938 170.365C490.385 170.365 490.8 170.324 491.183 170.242C491.57 170.156 491.985 170.014 492.427 169.818V171.124C492.035 171.311 491.638 171.443 491.237 171.521C490.836 171.598 490.378 171.637 489.863 171.637ZM489.569 165.02C489.059 165.02 488.649 165.181 488.339 165.505C488.034 165.828 487.851 166.3 487.792 166.92H491.224C491.215 166.296 491.064 165.824 490.772 165.505C490.481 165.181 490.08 165.02 489.569 165.02ZM497.677 171.637C496.533 171.637 495.662 171.304 495.065 170.639C494.473 169.969 494.177 169.009 494.177 167.761C494.177 166.489 494.487 165.512 495.106 164.828C495.731 164.145 496.631 163.803 497.807 163.803C498.604 163.803 499.322 163.951 499.96 164.247L499.475 165.539C498.796 165.275 498.235 165.143 497.793 165.143C496.485 165.143 495.831 166.011 495.831 167.747C495.831 168.595 495.993 169.233 496.316 169.661C496.645 170.085 497.123 170.297 497.752 170.297C498.467 170.297 499.144 170.119 499.782 169.764V171.165C499.495 171.334 499.188 171.454 498.859 171.527C498.536 171.6 498.142 171.637 497.677 171.637ZM507.24 163.939V165.197H504.779V171.5H503.166V165.197H500.705V163.939H507.24ZM515.402 167.706C515.402 168.941 515.086 169.905 514.452 170.598C513.819 171.29 512.937 171.637 511.807 171.637C511.1 171.637 510.476 171.477 509.934 171.158C509.391 170.839 508.974 170.381 508.683 169.784C508.391 169.187 508.245 168.494 508.245 167.706C508.245 166.48 508.56 165.523 509.188 164.835C509.817 164.147 510.704 163.803 511.848 163.803C512.941 163.803 513.807 164.156 514.445 164.862C515.083 165.564 515.402 166.512 515.402 167.706ZM509.899 167.706C509.899 169.451 510.544 170.324 511.834 170.324C513.11 170.324 513.748 169.451 513.748 167.706C513.748 165.979 513.105 165.115 511.82 165.115C511.146 165.115 510.656 165.339 510.351 165.785C510.05 166.232 509.899 166.872 509.899 167.706ZM527.502 163.939V171.5H525.889V165.211H522.498V171.5H520.892V163.939H527.502ZM533.641 171.637C532.684 171.637 531.941 171.293 531.412 170.604H531.316C531.38 171.243 531.412 171.63 531.412 171.767V174.863H529.806V163.939H531.104C531.141 164.081 531.216 164.418 531.33 164.951H531.412C531.913 164.186 532.665 163.803 533.668 163.803C534.611 163.803 535.345 164.145 535.869 164.828C536.398 165.512 536.662 166.471 536.662 167.706C536.662 168.941 536.393 169.905 535.855 170.598C535.322 171.29 534.584 171.637 533.641 171.637ZM533.251 165.115C532.613 165.115 532.146 165.302 531.85 165.676C531.558 166.049 531.412 166.646 531.412 167.467V167.706C531.412 168.627 531.558 169.294 531.85 169.709C532.141 170.119 532.618 170.324 533.278 170.324C533.834 170.324 534.263 170.096 534.563 169.641C534.864 169.185 535.015 168.535 535.015 167.692C535.015 166.845 534.864 166.204 534.563 165.771C534.267 165.334 533.83 165.115 533.251 165.115ZM545.234 167.706C545.234 168.941 544.918 169.905 544.284 170.598C543.651 171.29 542.769 171.637 541.639 171.637C540.932 171.637 540.308 171.477 539.766 171.158C539.223 170.839 538.806 170.381 538.515 169.784C538.223 169.187 538.077 168.494 538.077 167.706C538.077 166.48 538.392 165.523 539.021 164.835C539.649 164.147 540.536 163.803 541.68 163.803C542.773 163.803 543.639 164.156 544.277 164.862C544.915 165.564 545.234 166.512 545.234 167.706ZM539.731 167.706C539.731 169.451 540.376 170.324 541.666 170.324C542.942 170.324 543.58 169.451 543.58 167.706C543.58 165.979 542.938 165.115 541.652 165.115C540.978 165.115 540.488 165.339 540.183 165.785C539.882 166.232 539.731 166.872 539.731 167.706ZM548.625 163.939V167.815C548.625 168.267 548.589 168.93 548.516 169.805L552.31 163.939H554.271V171.5H552.727V167.692C552.727 167.483 552.738 167.143 552.761 166.674C552.788 166.204 552.811 165.863 552.829 165.648L549.049 171.5H547.087V163.939H548.625ZM558.229 166.961C558.963 166.961 559.503 166.881 559.85 166.722C560.196 166.558 560.369 166.307 560.369 165.97C560.369 165.354 559.822 165.047 558.729 165.047C557.999 165.047 557.254 165.211 556.493 165.539L555.974 164.343C556.853 163.983 557.824 163.803 558.886 163.803C559.825 163.803 560.554 163.976 561.073 164.322C561.593 164.664 561.853 165.156 561.853 165.799C561.853 166.646 561.367 167.202 560.396 167.467V167.521C561.003 167.686 561.436 167.92 561.695 168.226C561.96 168.531 562.092 168.909 562.092 169.36C562.092 170.053 561.786 170.607 561.176 171.021C560.57 171.432 559.722 171.637 558.633 171.637C557.443 171.637 556.534 171.479 555.905 171.165V169.777C556.739 170.169 557.603 170.365 558.496 170.365C559.139 170.365 559.633 170.276 559.979 170.099C560.33 169.916 560.506 169.641 560.506 169.271C560.506 168.893 560.33 168.615 559.979 168.438C559.629 168.26 559.086 168.171 558.353 168.171H557.43V166.961H558.229ZM570.397 165.874C570.397 166.767 569.876 167.307 568.832 167.494V167.549C569.415 167.617 569.862 167.802 570.172 168.103C570.482 168.403 570.637 168.793 570.637 169.271C570.637 169.987 570.363 170.538 569.816 170.926C569.274 171.309 568.483 171.5 567.444 171.5H563.835V163.939H567.431C569.409 163.939 570.397 164.584 570.397 165.874ZM568.989 169.176C568.989 168.811 568.848 168.554 568.565 168.403C568.283 168.248 567.859 168.171 567.294 168.171H565.441V170.311H567.335C568.438 170.311 568.989 169.932 568.989 169.176ZM568.791 166.011C568.791 165.71 568.673 165.493 568.436 165.361C568.203 165.225 567.854 165.156 567.39 165.156H565.441V166.975H567.15C567.688 166.975 568.096 166.906 568.374 166.77C568.652 166.628 568.791 166.375 568.791 166.011ZM579.004 167.706C579.004 168.941 578.687 169.905 578.054 170.598C577.42 171.29 576.538 171.637 575.408 171.637C574.702 171.637 574.077 171.477 573.535 171.158C572.993 170.839 572.576 170.381 572.284 169.784C571.993 169.187 571.847 168.494 571.847 167.706C571.847 166.48 572.161 165.523 572.79 164.835C573.419 164.147 574.305 163.803 575.449 163.803C576.543 163.803 577.409 164.156 578.047 164.862C578.685 165.564 579.004 166.512 579.004 167.706ZM573.501 167.706C573.501 169.451 574.146 170.324 575.436 170.324C576.712 170.324 577.35 169.451 577.35 167.706C577.35 165.979 576.707 165.115 575.422 165.115C574.747 165.115 574.257 165.339 573.952 165.785C573.651 166.232 573.501 166.872 573.501 167.706ZM588.109 174.173H586.612V171.5H581.431V174.173H579.947V170.256H580.562C581.1 169.486 581.526 168.556 581.841 167.467C582.16 166.373 582.349 165.197 582.408 163.939H587.002V170.256H588.109V174.173ZM585.423 170.256V165.17H583.796C583.709 166.109 583.527 167.034 583.249 167.945C582.976 168.857 582.641 169.627 582.244 170.256H585.423ZM592.56 171.637C591.416 171.637 590.545 171.304 589.948 170.639C589.356 169.969 589.06 169.009 589.06 167.761C589.06 166.489 589.369 165.512 589.989 164.828C590.614 164.145 591.514 163.803 592.689 163.803C593.487 163.803 594.205 163.951 594.843 164.247L594.357 165.539C593.678 165.275 593.118 165.143 592.676 165.143C591.368 165.143 590.714 166.011 590.714 167.747C590.714 168.595 590.876 169.233 591.199 169.661C591.527 170.085 592.006 170.297 592.635 170.297C593.35 170.297 594.027 170.119 594.665 169.764V171.165C594.378 171.334 594.07 171.454 593.742 171.527C593.419 171.6 593.024 171.637 592.56 171.637ZM602.123 163.939V165.197H599.662V171.5H598.049V165.197H595.588V163.939H602.123ZM610.142 165.874C610.142 166.767 609.62 167.307 608.576 167.494V167.549C609.16 167.617 609.606 167.802 609.916 168.103C610.226 168.403 610.381 168.793 610.381 169.271C610.381 169.987 610.107 170.538 609.561 170.926C609.018 171.309 608.228 171.5 607.188 171.5H603.579V163.939H607.175C609.153 163.939 610.142 164.584 610.142 165.874ZM608.733 169.176C608.733 168.811 608.592 168.554 608.31 168.403C608.027 168.248 607.603 168.171 607.038 168.171H605.186V170.311H607.079C608.182 170.311 608.733 169.932 608.733 169.176ZM608.535 166.011C608.535 165.71 608.417 165.493 608.18 165.361C607.947 165.225 607.599 165.156 607.134 165.156H605.186V166.975H606.895C607.432 166.975 607.84 166.906 608.118 166.77C608.396 166.628 608.535 166.375 608.535 166.011ZM616.772 171.5L616.451 170.447H616.396C616.032 170.908 615.665 171.222 615.296 171.391C614.927 171.555 614.453 171.637 613.874 171.637C613.131 171.637 612.55 171.436 612.131 171.035C611.716 170.634 611.509 170.067 611.509 169.333C611.509 168.554 611.798 167.966 612.377 167.569C612.956 167.173 613.838 166.956 615.022 166.92L616.328 166.879V166.476C616.328 165.993 616.214 165.632 615.986 165.396C615.763 165.154 615.414 165.033 614.94 165.033C614.553 165.033 614.182 165.09 613.826 165.204C613.471 165.318 613.129 165.452 612.801 165.607L612.281 164.459C612.691 164.245 613.14 164.083 613.628 163.974C614.116 163.86 614.576 163.803 615.009 163.803C615.97 163.803 616.695 164.012 617.183 164.432C617.675 164.851 617.921 165.509 617.921 166.407V171.5H616.772ZM614.38 170.406C614.963 170.406 615.43 170.244 615.781 169.921C616.137 169.593 616.314 169.135 616.314 168.547V167.891L615.344 167.932C614.587 167.959 614.036 168.087 613.689 168.314C613.348 168.538 613.177 168.882 613.177 169.347C613.177 169.684 613.277 169.946 613.478 170.133C613.678 170.315 613.979 170.406 614.38 170.406ZM621.831 170.03C621.612 170.878 621.211 171.969 620.628 173.305H619.445C619.76 172.074 619.994 170.93 620.149 169.873H621.729L621.831 170.03ZM432.387 182.939V185.975H435.948V182.939H437.555V190.5H435.948V187.239H432.387V190.5H430.78V182.939H432.387ZM444.589 190.5L444.268 189.447H444.213C443.848 189.908 443.481 190.222 443.112 190.391C442.743 190.555 442.269 190.637 441.69 190.637C440.948 190.637 440.367 190.436 439.947 190.035C439.533 189.634 439.325 189.067 439.325 188.333C439.325 187.554 439.615 186.966 440.193 186.569C440.772 186.173 441.654 185.956 442.839 185.92L444.145 185.879V185.476C444.145 184.993 444.031 184.632 443.803 184.396C443.579 184.154 443.231 184.033 442.757 184.033C442.369 184.033 441.998 184.09 441.643 184.204C441.287 184.318 440.945 184.452 440.617 184.607L440.098 183.459C440.508 183.245 440.957 183.083 441.444 182.974C441.932 182.86 442.392 182.803 442.825 182.803C443.787 182.803 444.511 183.012 444.999 183.432C445.491 183.851 445.737 184.509 445.737 185.407V190.5H444.589ZM442.196 189.406C442.78 189.406 443.247 189.244 443.598 188.921C443.953 188.593 444.131 188.135 444.131 187.547V186.891L443.16 186.932C442.404 186.959 441.852 187.087 441.506 187.314C441.164 187.538 440.993 187.882 440.993 188.347C440.993 188.684 441.093 188.946 441.294 189.133C441.494 189.315 441.795 189.406 442.196 189.406ZM449.647 185.961C450.381 185.961 450.921 185.881 451.268 185.722C451.614 185.558 451.787 185.307 451.787 184.97C451.787 184.354 451.24 184.047 450.146 184.047C449.417 184.047 448.672 184.211 447.911 184.539L447.392 183.343C448.271 182.983 449.242 182.803 450.304 182.803C451.243 182.803 451.972 182.976 452.491 183.322C453.011 183.664 453.271 184.156 453.271 184.799C453.271 185.646 452.785 186.202 451.814 186.467V186.521C452.421 186.686 452.854 186.92 453.113 187.226C453.378 187.531 453.51 187.909 453.51 188.36C453.51 189.053 453.204 189.607 452.594 190.021C451.988 190.432 451.14 190.637 450.051 190.637C448.861 190.637 447.952 190.479 447.323 190.165V188.777C448.157 189.169 449.021 189.365 449.914 189.365C450.557 189.365 451.051 189.276 451.397 189.099C451.748 188.916 451.924 188.641 451.924 188.271C451.924 187.893 451.748 187.615 451.397 187.438C451.047 187.26 450.504 187.171 449.771 187.171H448.848V185.961H449.647ZM461.815 184.874C461.815 185.767 461.294 186.307 460.25 186.494V186.549C460.833 186.617 461.28 186.802 461.59 187.103C461.9 187.403 462.055 187.793 462.055 188.271C462.055 188.987 461.781 189.538 461.234 189.926C460.692 190.309 459.901 190.5 458.862 190.5H455.253V182.939H458.849C460.826 182.939 461.815 183.584 461.815 184.874ZM460.407 188.176C460.407 187.811 460.266 187.554 459.983 187.403C459.701 187.248 459.277 187.171 458.712 187.171H456.859V189.311H458.753C459.856 189.311 460.407 188.932 460.407 188.176ZM460.209 185.011C460.209 184.71 460.09 184.493 459.854 184.361C459.621 184.225 459.272 184.156 458.808 184.156H456.859V185.975H458.568C459.106 185.975 459.514 185.906 459.792 185.77C460.07 185.628 460.209 185.375 460.209 185.011ZM468.446 190.5L468.125 189.447H468.07C467.706 189.908 467.339 190.222 466.97 190.391C466.601 190.555 466.127 190.637 465.548 190.637C464.805 190.637 464.224 190.436 463.805 190.035C463.39 189.634 463.183 189.067 463.183 188.333C463.183 187.554 463.472 186.966 464.051 186.569C464.63 186.173 465.511 185.956 466.696 185.92L468.002 185.879V185.476C468.002 184.993 467.888 184.632 467.66 184.396C467.437 184.154 467.088 184.033 466.614 184.033C466.227 184.033 465.855 184.09 465.5 184.204C465.145 184.318 464.803 184.452 464.475 184.607L463.955 183.459C464.365 183.245 464.814 183.083 465.302 182.974C465.789 182.86 466.25 182.803 466.683 182.803C467.644 182.803 468.369 183.012 468.856 183.432C469.349 183.851 469.595 184.509 469.595 185.407V190.5H468.446ZM466.054 189.406C466.637 189.406 467.104 189.244 467.455 188.921C467.811 188.593 467.988 188.135 467.988 187.547V186.891L467.018 186.932C466.261 186.959 465.71 187.087 465.363 187.314C465.021 187.538 464.851 187.882 464.851 188.347C464.851 188.684 464.951 188.946 465.151 189.133C465.352 189.315 465.653 189.406 466.054 189.406ZM473.443 182.939V185.975H477.005V182.939H478.611V190.5H477.005V187.239H473.443V190.5H471.837V182.939H473.443ZM482.453 182.939V186.815C482.453 187.267 482.417 187.93 482.344 188.805L486.138 182.939H488.1V190.5H486.555V186.692C486.555 186.483 486.566 186.143 486.589 185.674C486.616 185.204 486.639 184.863 486.657 184.648L482.877 190.5H480.915V182.939H482.453ZM493.691 190.637C492.516 190.637 491.595 190.295 490.93 189.611C490.269 188.923 489.938 187.978 489.938 186.774C489.938 185.539 490.246 184.569 490.861 183.862C491.477 183.156 492.322 182.803 493.397 182.803C494.396 182.803 495.184 183.106 495.763 183.712C496.341 184.318 496.631 185.152 496.631 186.214V187.082H491.593C491.616 187.816 491.814 188.381 492.188 188.777C492.561 189.169 493.088 189.365 493.767 189.365C494.213 189.365 494.628 189.324 495.011 189.242C495.398 189.156 495.813 189.014 496.255 188.818V190.124C495.863 190.311 495.466 190.443 495.065 190.521C494.664 190.598 494.206 190.637 493.691 190.637ZM493.397 184.02C492.887 184.02 492.477 184.181 492.167 184.505C491.862 184.828 491.679 185.3 491.62 185.92H495.052C495.043 185.296 494.892 184.824 494.601 184.505C494.309 184.181 493.908 184.02 493.397 184.02ZM500.124 189.03C499.905 189.878 499.504 190.969 498.921 192.305H497.738C498.053 191.074 498.287 189.93 498.442 188.873H500.021L500.124 189.03ZM516.729 193.173H515.231V190.5H510.05V193.173H508.566V189.256H509.182C509.719 188.486 510.146 187.556 510.46 186.467C510.779 185.373 510.968 184.197 511.027 182.939H515.621V189.256H516.729V193.173ZM514.042 189.256V184.17H512.415C512.328 185.109 512.146 186.034 511.868 186.945C511.595 187.857 511.26 188.627 510.863 189.256H514.042ZM521.432 190.637C520.256 190.637 519.335 190.295 518.67 189.611C518.009 188.923 517.679 187.978 517.679 186.774C517.679 185.539 517.986 184.569 518.602 183.862C519.217 183.156 520.062 182.803 521.138 182.803C522.136 182.803 522.924 183.106 523.503 183.712C524.082 184.318 524.371 185.152 524.371 186.214V187.082H519.333C519.356 187.816 519.554 188.381 519.928 188.777C520.301 189.169 520.828 189.365 521.507 189.365C521.953 189.365 522.368 189.324 522.751 189.242C523.138 189.156 523.553 189.014 523.995 188.818V190.124C523.603 190.311 523.207 190.443 522.806 190.521C522.405 190.598 521.947 190.637 521.432 190.637ZM521.138 184.02C520.627 184.02 520.217 184.181 519.907 184.505C519.602 184.828 519.42 185.3 519.36 185.92H522.792C522.783 185.296 522.632 184.824 522.341 184.505C522.049 184.181 521.648 184.02 521.138 184.02ZM530.031 190.637C529.074 190.637 528.331 190.293 527.803 189.604H527.707C527.771 190.243 527.803 190.63 527.803 190.767V193.863H526.196V182.939H527.495C527.532 183.081 527.607 183.418 527.721 183.951H527.803C528.304 183.186 529.056 182.803 530.059 182.803C531.002 182.803 531.736 183.145 532.26 183.828C532.788 184.512 533.053 185.471 533.053 186.706C533.053 187.941 532.784 188.905 532.246 189.598C531.713 190.29 530.975 190.637 530.031 190.637ZM529.642 184.115C529.004 184.115 528.536 184.302 528.24 184.676C527.949 185.049 527.803 185.646 527.803 186.467V186.706C527.803 187.627 527.949 188.294 528.24 188.709C528.532 189.119 529.008 189.324 529.669 189.324C530.225 189.324 530.653 189.096 530.954 188.641C531.255 188.185 531.405 187.535 531.405 186.692C531.405 185.845 531.255 185.204 530.954 184.771C530.658 184.334 530.22 184.115 529.642 184.115ZM538.645 186.61V182.939H540.142V186.61L543.054 182.939H544.749L541.775 186.597L545.016 190.5H543.245L540.142 186.665V190.5H538.645V186.665L535.548 190.5H533.784L537.018 186.597L534.051 182.939H535.746L538.645 186.61ZM550.915 190.5L550.594 189.447H550.539C550.174 189.908 549.808 190.222 549.438 190.391C549.069 190.555 548.595 190.637 548.017 190.637C547.274 190.637 546.693 190.436 546.273 190.035C545.859 189.634 545.651 189.067 545.651 188.333C545.651 187.554 545.941 186.966 546.52 186.569C547.098 186.173 547.98 185.956 549.165 185.92L550.471 185.879V185.476C550.471 184.993 550.357 184.632 550.129 184.396C549.906 184.154 549.557 184.033 549.083 184.033C548.696 184.033 548.324 184.09 547.969 184.204C547.613 184.318 547.271 184.452 546.943 184.607L546.424 183.459C546.834 183.245 547.283 183.083 547.771 182.974C548.258 182.86 548.718 182.803 549.151 182.803C550.113 182.803 550.838 183.012 551.325 183.432C551.817 183.851 552.063 184.509 552.063 185.407V190.5H550.915ZM548.522 189.406C549.106 189.406 549.573 189.244 549.924 188.921C550.279 188.593 550.457 188.135 550.457 187.547V186.891L549.486 186.932C548.73 186.959 548.178 187.087 547.832 187.314C547.49 187.538 547.319 187.882 547.319 188.347C547.319 188.684 547.42 188.946 547.62 189.133C547.821 189.315 548.121 189.406 548.522 189.406ZM559.986 182.939V184.197H557.525V190.5H555.912V184.197H553.451V182.939H559.986ZM564.744 190.637C563.568 190.637 562.648 190.295 561.982 189.611C561.322 188.923 560.991 187.978 560.991 186.774C560.991 185.539 561.299 184.569 561.914 183.862C562.529 183.156 563.375 182.803 564.45 182.803C565.448 182.803 566.237 183.106 566.815 183.712C567.394 184.318 567.684 185.152 567.684 186.214V187.082H562.646C562.668 187.816 562.867 188.381 563.24 188.777C563.614 189.169 564.14 189.365 564.819 189.365C565.266 189.365 565.681 189.324 566.063 189.242C566.451 189.156 566.866 189.014 567.308 188.818V190.124C566.916 190.311 566.519 190.443 566.118 190.521C565.717 190.598 565.259 190.637 564.744 190.637ZM564.45 184.02C563.94 184.02 563.53 184.181 563.22 184.505C562.914 184.828 562.732 185.3 562.673 185.92H566.104C566.095 185.296 565.945 184.824 565.653 184.505C565.362 184.181 564.961 184.02 564.45 184.02ZM575.723 190.5H574.103V184.197H572.018C571.89 185.82 571.717 187.087 571.498 187.998C571.284 188.91 571.001 189.575 570.65 189.994C570.304 190.413 569.853 190.623 569.297 190.623C568.946 190.623 568.652 190.573 568.415 190.473V189.215C568.584 189.279 568.752 189.311 568.921 189.311C569.386 189.311 569.75 188.789 570.015 187.745C570.284 186.697 570.493 185.095 570.644 182.939H575.723V190.5ZM579.633 185.961H581.526C583.636 185.961 584.691 186.69 584.691 188.148C584.691 188.919 584.423 189.504 583.885 189.905C583.347 190.302 582.561 190.5 581.526 190.5H578.026V182.939H579.633V185.961ZM583.078 188.189C583.078 187.811 582.935 187.547 582.647 187.396C582.36 187.246 581.955 187.171 581.431 187.171H579.633V189.311H581.458C581.987 189.311 582.388 189.215 582.661 189.023C582.939 188.832 583.078 188.554 583.078 188.189ZM588.144 189.03C587.925 189.878 587.524 190.969 586.94 192.305H585.758C586.072 191.074 586.307 189.93 586.462 188.873H588.041L588.144 189.03ZM596.907 190.637C595.763 190.637 594.893 190.304 594.296 189.639C593.703 188.969 593.407 188.009 593.407 186.761C593.407 185.489 593.717 184.512 594.337 183.828C594.961 183.145 595.861 182.803 597.037 182.803C597.835 182.803 598.552 182.951 599.19 183.247L598.705 184.539C598.026 184.275 597.465 184.143 597.023 184.143C595.715 184.143 595.062 185.011 595.062 186.747C595.062 187.595 595.223 188.233 595.547 188.661C595.875 189.085 596.354 189.297 596.982 189.297C597.698 189.297 598.375 189.119 599.013 188.764V190.165C598.726 190.334 598.418 190.454 598.09 190.527C597.766 190.6 597.372 190.637 596.907 190.637ZM604.625 190.637C603.668 190.637 602.925 190.293 602.396 189.604H602.301C602.365 190.243 602.396 190.63 602.396 190.767V193.863H600.79V182.939H602.089C602.125 183.081 602.201 183.418 602.314 183.951H602.396C602.898 183.186 603.65 182.803 604.652 182.803C605.596 182.803 606.329 183.145 606.854 183.828C607.382 184.512 607.646 185.471 607.646 186.706C607.646 187.941 607.378 188.905 606.84 189.598C606.307 190.29 605.568 190.637 604.625 190.637ZM604.235 184.115C603.597 184.115 603.13 184.302 602.834 184.676C602.542 185.049 602.396 185.646 602.396 186.467V186.706C602.396 187.627 602.542 188.294 602.834 188.709C603.126 189.119 603.602 189.324 604.263 189.324C604.819 189.324 605.247 189.096 605.548 188.641C605.849 188.185 605.999 187.535 605.999 186.692C605.999 185.845 605.849 185.204 605.548 184.771C605.252 184.334 604.814 184.115 604.235 184.115ZM616.219 186.706C616.219 187.941 615.902 188.905 615.269 189.598C614.635 190.29 613.753 190.637 612.623 190.637C611.917 190.637 611.292 190.477 610.75 190.158C610.208 189.839 609.791 189.381 609.499 188.784C609.207 188.187 609.062 187.494 609.062 186.706C609.062 185.48 609.376 184.523 610.005 183.835C610.634 183.147 611.52 182.803 612.664 182.803C613.758 182.803 614.624 183.156 615.262 183.862C615.9 184.564 616.219 185.512 616.219 186.706ZM610.716 186.706C610.716 188.451 611.361 189.324 612.65 189.324C613.926 189.324 614.564 188.451 614.564 186.706C614.564 184.979 613.922 184.115 612.637 184.115C611.962 184.115 611.472 184.339 611.167 184.785C610.866 185.232 610.716 185.872 610.716 186.706ZM622.761 182.939H624.524L621.4 186.583L624.791 190.5H622.945L619.678 186.665V190.5H618.071V182.939H619.678V186.61L622.761 182.939ZM627.58 182.939V186.815C627.58 187.267 627.544 187.93 627.471 188.805L631.265 182.939H633.227V190.5H631.682V186.692C631.682 186.483 631.693 186.143 631.716 185.674C631.743 185.204 631.766 184.863 631.784 184.648L628.004 190.5H626.042V182.939H627.58ZM464.502 205.638L461.966 201.939H463.798L465.521 204.585L467.257 201.939H469.075L466.532 205.638L469.205 209.5H467.387L465.521 206.67L463.661 209.5H461.843L464.502 205.638ZM474.366 209.637C473.409 209.637 472.666 209.293 472.138 208.604H472.042C472.106 209.243 472.138 209.63 472.138 209.767V212.863H470.531V201.939H471.83C471.867 202.081 471.942 202.418 472.056 202.951H472.138C472.639 202.186 473.391 201.803 474.394 201.803C475.337 201.803 476.071 202.145 476.595 202.828C477.123 203.512 477.388 204.471 477.388 205.706C477.388 206.941 477.119 207.905 476.581 208.598C476.048 209.29 475.31 209.637 474.366 209.637ZM473.977 203.115C473.339 203.115 472.871 203.302 472.575 203.676C472.284 204.049 472.138 204.646 472.138 205.467V205.706C472.138 206.627 472.284 207.294 472.575 207.709C472.867 208.119 473.343 208.324 474.004 208.324C474.56 208.324 474.988 208.096 475.289 207.641C475.59 207.185 475.74 206.535 475.74 205.692C475.74 204.845 475.59 204.204 475.289 203.771C474.993 203.334 474.555 203.115 473.977 203.115ZM483.984 209.5L483.663 208.447H483.608C483.244 208.908 482.877 209.222 482.508 209.391C482.139 209.555 481.665 209.637 481.086 209.637C480.343 209.637 479.762 209.436 479.343 209.035C478.928 208.634 478.721 208.067 478.721 207.333C478.721 206.554 479.01 205.966 479.589 205.569C480.168 205.173 481.049 204.956 482.234 204.92L483.54 204.879V204.476C483.54 203.993 483.426 203.632 483.198 203.396C482.975 203.154 482.626 203.033 482.152 203.033C481.765 203.033 481.394 203.09 481.038 203.204C480.683 203.318 480.341 203.452 480.013 203.607L479.493 202.459C479.903 202.245 480.352 202.083 480.84 201.974C481.327 201.86 481.788 201.803 482.221 201.803C483.182 201.803 483.907 202.012 484.395 202.432C484.887 202.851 485.133 203.509 485.133 204.407V209.5H483.984ZM481.592 208.406C482.175 208.406 482.642 208.244 482.993 207.921C483.349 207.593 483.526 207.135 483.526 206.547V205.891L482.556 205.932C481.799 205.959 481.248 206.087 480.901 206.314C480.56 206.538 480.389 206.882 480.389 207.347C480.389 207.684 480.489 207.946 480.689 208.133C480.89 208.315 481.191 208.406 481.592 208.406ZM488.981 201.939V204.975H492.543V201.939H494.149V209.5H492.543V206.239H488.981V209.5H487.375V201.939H488.981ZM499.755 209.637C498.579 209.637 497.659 209.295 496.993 208.611C496.332 207.923 496.002 206.978 496.002 205.774C496.002 204.539 496.31 203.569 496.925 202.862C497.54 202.156 498.385 201.803 499.461 201.803C500.459 201.803 501.247 202.106 501.826 202.712C502.405 203.318 502.694 204.152 502.694 205.214V206.082H497.656C497.679 206.816 497.877 207.381 498.251 207.777C498.625 208.169 499.151 208.365 499.83 208.365C500.277 208.365 500.691 208.324 501.074 208.242C501.462 208.156 501.876 208.014 502.318 207.818V209.124C501.926 209.311 501.53 209.443 501.129 209.521C500.728 209.598 500.27 209.637 499.755 209.637ZM499.461 203.02C498.951 203.02 498.54 203.181 498.23 203.505C497.925 203.828 497.743 204.3 497.684 204.92H501.115C501.106 204.296 500.956 203.824 500.664 203.505C500.372 203.181 499.971 203.02 499.461 203.02ZM506.126 201.939V204.975H509.688V201.939H511.294V209.5H509.688V206.239H506.126V209.5H504.52V201.939H506.126ZM515.136 201.939V205.815C515.136 206.267 515.099 206.93 515.026 207.805L518.82 201.939H520.782V209.5H519.237V205.692C519.237 205.483 519.249 205.143 519.271 204.674C519.299 204.204 519.322 203.863 519.34 203.648L515.56 209.5H513.598V201.939H515.136ZM523.845 209.5H522.047L524.152 206.403C523.642 206.257 523.241 205.998 522.949 205.624C522.658 205.246 522.512 204.779 522.512 204.223C522.512 203.507 522.767 202.949 523.277 202.548C523.788 202.142 524.485 201.939 525.369 201.939H528.814V209.5H527.201V206.588H525.677L523.845 209.5ZM524.077 204.236C524.077 204.624 524.223 204.915 524.515 205.111C524.811 205.303 525.207 205.398 525.704 205.398H527.201V203.156H525.451C525.014 203.156 524.674 203.25 524.433 203.437C524.196 203.623 524.077 203.89 524.077 204.236ZM536.286 201.939V205.815C536.286 206.267 536.25 206.93 536.177 207.805L539.971 201.939H541.933V209.5H540.388V205.692C540.388 205.483 540.399 205.143 540.422 204.674C540.449 204.204 540.472 203.863 540.49 203.648L536.71 209.5H534.748V201.939H536.286ZM554.47 201.939V209.5H552.856V203.211H549.466V209.5H547.859V201.939H554.47ZM560.608 209.637C559.651 209.637 558.909 209.293 558.38 208.604H558.284C558.348 209.243 558.38 209.63 558.38 209.767V212.863H556.773V201.939H558.072C558.109 202.081 558.184 202.418 558.298 202.951H558.38C558.881 202.186 559.633 201.803 560.636 201.803C561.579 201.803 562.313 202.145 562.837 202.828C563.366 203.512 563.63 204.471 563.63 205.706C563.63 206.941 563.361 207.905 562.823 208.598C562.29 209.29 561.552 209.637 560.608 209.637ZM560.219 203.115C559.581 203.115 559.114 203.302 558.817 203.676C558.526 204.049 558.38 204.646 558.38 205.467V205.706C558.38 206.627 558.526 207.294 558.817 207.709C559.109 208.119 559.585 208.324 560.246 208.324C560.802 208.324 561.23 208.096 561.531 207.641C561.832 207.185 561.982 206.535 561.982 205.692C561.982 204.845 561.832 204.204 561.531 203.771C561.235 203.334 560.798 203.115 560.219 203.115ZM572.202 205.706C572.202 206.941 571.885 207.905 571.252 208.598C570.618 209.29 569.737 209.637 568.606 209.637C567.9 209.637 567.276 209.477 566.733 209.158C566.191 208.839 565.774 208.381 565.482 207.784C565.191 207.187 565.045 206.494 565.045 205.706C565.045 204.48 565.359 203.523 565.988 202.835C566.617 202.147 567.504 201.803 568.647 201.803C569.741 201.803 570.607 202.156 571.245 202.862C571.883 203.564 572.202 204.512 572.202 205.706ZM566.699 205.706C566.699 207.451 567.344 208.324 568.634 208.324C569.91 208.324 570.548 207.451 570.548 205.706C570.548 203.979 569.905 203.115 568.62 203.115C567.946 203.115 567.456 203.339 567.15 203.785C566.85 204.232 566.699 204.872 566.699 205.706ZM575.47 201.939V204.701C575.47 205.476 575.871 205.863 576.673 205.863C577.06 205.863 577.438 205.811 577.808 205.706C578.177 205.597 578.573 205.424 578.997 205.187V201.939H580.604V209.5H578.997V206.294C578.555 206.567 578.127 206.77 577.712 206.902C577.302 207.03 576.853 207.094 576.365 207.094C575.577 207.094 574.962 206.891 574.52 206.485C574.077 206.075 573.856 205.503 573.856 204.77V201.939H575.47ZM586.202 209.637C585.026 209.637 584.106 209.295 583.44 208.611C582.78 207.923 582.449 206.978 582.449 205.774C582.449 204.539 582.757 203.569 583.372 202.862C583.987 202.156 584.833 201.803 585.908 201.803C586.906 201.803 587.695 202.106 588.273 202.712C588.852 203.318 589.142 204.152 589.142 205.214V206.082H584.104C584.126 206.816 584.325 207.381 584.698 207.777C585.072 208.169 585.598 208.365 586.277 208.365C586.724 208.365 587.139 208.324 587.521 208.242C587.909 208.156 588.324 208.014 588.766 207.818V209.124C588.374 209.311 587.977 209.443 587.576 209.521C587.175 209.598 586.717 209.637 586.202 209.637ZM585.908 203.02C585.398 203.02 584.988 203.181 584.678 203.505C584.372 203.828 584.19 204.3 584.131 204.92H587.562C587.553 204.296 587.403 203.824 587.111 203.505C586.82 203.181 586.419 203.02 585.908 203.02ZM594.269 209.637C593.093 209.637 592.172 209.295 591.507 208.611C590.846 207.923 590.516 206.978 590.516 205.774C590.516 204.539 590.823 203.569 591.438 202.862C592.054 202.156 592.899 201.803 593.975 201.803C594.973 201.803 595.761 202.106 596.34 202.712C596.919 203.318 597.208 204.152 597.208 205.214V206.082H592.17C592.193 206.816 592.391 207.381 592.765 207.777C593.138 208.169 593.665 208.365 594.344 208.365C594.79 208.365 595.205 208.324 595.588 208.242C595.975 208.156 596.39 208.014 596.832 207.818V209.124C596.44 209.311 596.044 209.443 595.643 209.521C595.242 209.598 594.784 209.637 594.269 209.637ZM593.975 203.02C593.464 203.02 593.054 203.181 592.744 203.505C592.439 203.828 592.257 204.3 592.197 204.92H595.629C595.62 204.296 595.469 203.824 595.178 203.505C594.886 203.181 594.485 203.02 593.975 203.02ZM601.761 205.665C601.761 206.864 601.583 207.98 601.228 209.015C600.877 210.049 600.368 210.949 599.703 211.715H598.315C598.944 210.863 599.425 209.917 599.758 208.878C600.095 207.839 600.264 206.763 600.264 205.651C600.264 204.535 600.095 203.448 599.758 202.391C599.421 201.329 598.935 200.367 598.302 199.506H599.703C600.373 200.303 600.883 201.231 601.234 202.288C601.585 203.341 601.761 204.466 601.761 205.665Z" fill="white"/>
<circle cx="421" cy="233" r="25" fill="#7C090C"/>
<path d="M426.082 241H414.105V238.48L418.406 234.133C419.68 232.828 420.512 231.926 420.902 231.426C421.293 230.918 421.574 230.449 421.746 230.02C421.918 229.59 422.004 229.145 422.004 228.684C422.004 227.996 421.812 227.484 421.43 227.148C421.055 226.812 420.551 226.645 419.918 226.645C419.254 226.645 418.609 226.797 417.984 227.102C417.359 227.406 416.707 227.84 416.027 228.402L414.059 226.07C414.902 225.352 415.602 224.844 416.156 224.547C416.711 224.25 417.316 224.023 417.973 223.867C418.629 223.703 419.363 223.621 420.176 223.621C421.246 223.621 422.191 223.816 423.012 224.207C423.832 224.598 424.469 225.145 424.922 225.848C425.375 226.551 425.602 227.355 425.602 228.262C425.602 229.051 425.461 229.793 425.18 230.488C424.906 231.176 424.477 231.883 423.891 232.609C423.312 233.336 422.289 234.371 420.82 235.715L418.617 237.789V237.953H426.082V241Z" fill="white"/>
<path d="M546.817 39.1573V19H498V106H567V39.1573H546.817ZM533.535 33.9888H541.987V39.1573H533.535V33.9888ZM509.514 38.2804H515.537V32.266H520.712V38.2805H526.734V43.449H520.712V49.4636H515.537V43.449H509.514V38.2804ZM536.209 56.7284V61.8969H511.239V56.7284H536.209ZM511.239 73.9568H523.616V79.1253H511.239V73.9568ZM542.607 96.3539H522.393V91.1854H542.607V96.3539ZM553.761 87.7397H511.239V82.5712H553.761V87.7397ZM553.761 79.1255H528.791V73.957H553.761V79.1255ZM553.761 70.5111H511.239V65.3426H553.761V70.5111ZM553.761 61.8969H541.384V56.7284H553.761V61.8969ZM553.761 47.7717H533.535V42.6032H553.761V47.7717V47.7717Z" fill="white"/>
<path d="M551.992 19V33.9888H567L551.992 19Z" fill="white"/>
<rect x="355.494" y="129.495" width="22.037" height="22.037" transform="rotate(135 355.494 129.495)" fill="#7C090C"/>
<rect x="339.913" y="113.913" width="22.037" height="22.037" transform="rotate(135 339.913 113.913)" fill="#7C090C"/>
<rect x="339.913" y="145.078" width="22.037" height="22.037" transform="rotate(135 339.913 145.078)" fill="#7C090C"/>
<line x1="339.916" y1="145.075" x2="324.333" y2="129.492" stroke="white" stroke-width="0.5"/>
<line x1="339.97" y1="113.97" x2="324.387" y2="129.552" stroke="white" stroke-width="0.5"/>
<rect x="751.494" y="129.495" width="22.037" height="22.037" transform="rotate(135 751.494 129.495)" fill="#7C090C"/>
<rect x="735.913" y="113.913" width="22.037" height="22.037" transform="rotate(135 735.913 113.913)" fill="#7C090C"/>
<rect x="735.913" y="145.078" width="22.037" height="22.037" transform="rotate(135 735.913 145.078)" fill="#7C090C"/>
<line x1="735.916" y1="145.075" x2="720.333" y2="129.492" stroke="white" stroke-width="0.5"/>
<line x1="735.97" y1="113.97" x2="720.387" y2="129.552" stroke="white" stroke-width="0.5"/>
<rect x="11" width="250" height="250" rx="4" fill="#BE1B1F"/>
<path d="M99.4482 152.5H97.8076V143.907H93.3984V152.5H91.7646V142.506H99.4482V152.5ZM105.751 152.637C104.794 152.637 104.051 152.293 103.522 151.604H103.427C103.491 152.243 103.522 152.63 103.522 152.767V155.863H101.916V144.939H103.215C103.251 145.081 103.326 145.418 103.44 145.951H103.522C104.024 145.186 104.776 144.803 105.778 144.803C106.722 144.803 107.455 145.145 107.979 145.828C108.508 146.512 108.772 147.471 108.772 148.706C108.772 149.941 108.504 150.905 107.966 151.598C107.433 152.29 106.694 152.637 105.751 152.637ZM105.361 146.115C104.723 146.115 104.256 146.302 103.96 146.676C103.668 147.049 103.522 147.646 103.522 148.467V148.706C103.522 149.627 103.668 150.294 103.96 150.709C104.252 151.119 104.728 151.324 105.389 151.324C105.945 151.324 106.373 151.096 106.674 150.641C106.975 150.185 107.125 149.535 107.125 148.692C107.125 147.845 106.975 147.204 106.674 146.771C106.378 146.334 105.94 146.115 105.361 146.115ZM117.345 148.706C117.345 149.941 117.028 150.905 116.395 151.598C115.761 152.29 114.879 152.637 113.749 152.637C113.043 152.637 112.418 152.477 111.876 152.158C111.334 151.839 110.917 151.381 110.625 150.784C110.333 150.187 110.188 149.494 110.188 148.706C110.188 147.48 110.502 146.523 111.131 145.835C111.76 145.147 112.646 144.803 113.79 144.803C114.884 144.803 115.75 145.156 116.388 145.862C117.026 146.564 117.345 147.512 117.345 148.706ZM111.842 148.706C111.842 150.451 112.487 151.324 113.776 151.324C115.052 151.324 115.69 150.451 115.69 148.706C115.69 146.979 115.048 146.115 113.763 146.115C113.088 146.115 112.598 146.339 112.293 146.785C111.992 147.232 111.842 147.872 111.842 148.706ZM125.76 146.874C125.76 147.767 125.238 148.307 124.194 148.494V148.549C124.778 148.617 125.224 148.802 125.534 149.103C125.844 149.403 125.999 149.793 125.999 150.271C125.999 150.987 125.726 151.538 125.179 151.926C124.636 152.309 123.846 152.5 122.807 152.5H119.197V144.939H122.793C124.771 144.939 125.76 145.584 125.76 146.874ZM124.352 150.176C124.352 149.811 124.21 149.554 123.928 149.403C123.645 149.248 123.221 149.171 122.656 149.171H120.804V151.311H122.697C123.8 151.311 124.352 150.932 124.352 150.176ZM124.153 147.011C124.153 146.71 124.035 146.493 123.798 146.361C123.565 146.225 123.217 146.156 122.752 146.156H120.804V147.975H122.513C123.05 147.975 123.458 147.906 123.736 147.77C124.014 147.628 124.153 147.375 124.153 147.011ZM130.962 152.637C129.786 152.637 128.866 152.295 128.2 151.611C127.539 150.923 127.209 149.978 127.209 148.774C127.209 147.539 127.517 146.569 128.132 145.862C128.747 145.156 129.592 144.803 130.668 144.803C131.666 144.803 132.454 145.106 133.033 145.712C133.612 146.318 133.901 147.152 133.901 148.214V149.082H128.863C128.886 149.816 129.084 150.381 129.458 150.777C129.832 151.169 130.358 151.365 131.037 151.365C131.484 151.365 131.898 151.324 132.281 151.242C132.669 151.156 133.083 151.014 133.525 150.818V152.124C133.133 152.311 132.737 152.443 132.336 152.521C131.935 152.598 131.477 152.637 130.962 152.637ZM130.668 146.02C130.158 146.02 129.747 146.181 129.438 146.505C129.132 146.828 128.95 147.3 128.891 147.92H132.322C132.313 147.296 132.163 146.824 131.871 146.505C131.579 146.181 131.178 146.02 130.668 146.02ZM142.979 155.173H141.482V152.5H136.301V155.173H134.817V151.256H135.433C135.97 150.486 136.396 149.556 136.711 148.467C137.03 147.373 137.219 146.197 137.278 144.939H141.872V151.256H142.979V155.173ZM140.293 151.256V146.17H138.666C138.579 147.109 138.397 148.034 138.119 148.945C137.846 149.857 137.511 150.627 137.114 151.256H140.293ZM147.683 152.637C146.507 152.637 145.586 152.295 144.921 151.611C144.26 150.923 143.93 149.978 143.93 148.774C143.93 147.539 144.237 146.569 144.853 145.862C145.468 145.156 146.313 144.803 147.389 144.803C148.387 144.803 149.175 145.106 149.754 145.712C150.333 146.318 150.622 147.152 150.622 148.214V149.082H145.584C145.607 149.816 145.805 150.381 146.179 150.777C146.552 151.169 147.079 151.365 147.758 151.365C148.204 151.365 148.619 151.324 149.002 151.242C149.389 151.156 149.804 151.014 150.246 150.818V152.124C149.854 152.311 149.458 152.443 149.057 152.521C148.656 152.598 148.198 152.637 147.683 152.637ZM147.389 146.02C146.878 146.02 146.468 146.181 146.158 146.505C145.853 146.828 145.671 147.3 145.611 147.92H149.043C149.034 147.296 148.883 146.824 148.592 146.505C148.3 146.181 147.899 146.02 147.389 146.02ZM154.054 144.939V147.975H157.615V144.939H159.222V152.5H157.615V149.239H154.054V152.5H152.447V144.939H154.054ZM163.063 144.939V148.815C163.063 149.267 163.027 149.93 162.954 150.805L166.748 144.939H168.71V152.5H167.165V148.692C167.165 148.483 167.176 148.143 167.199 147.674C167.227 147.204 167.249 146.863 167.268 146.648L163.487 152.5H161.525V144.939H163.063ZM174.302 152.637C173.126 152.637 172.205 152.295 171.54 151.611C170.879 150.923 170.549 149.978 170.549 148.774C170.549 147.539 170.856 146.569 171.472 145.862C172.087 145.156 172.932 144.803 174.008 144.803C175.006 144.803 175.794 145.106 176.373 145.712C176.952 146.318 177.241 147.152 177.241 148.214V149.082H172.203C172.226 149.816 172.424 150.381 172.798 150.777C173.172 151.169 173.698 151.365 174.377 151.365C174.824 151.365 175.238 151.324 175.621 151.242C176.008 151.156 176.423 151.014 176.865 150.818V152.124C176.473 152.311 176.077 152.443 175.676 152.521C175.275 152.598 174.817 152.637 174.302 152.637ZM174.008 146.02C173.497 146.02 173.087 146.181 172.777 146.505C172.472 146.828 172.29 147.3 172.23 147.92H175.662C175.653 147.296 175.503 146.824 175.211 146.505C174.919 146.181 174.518 146.02 174.008 146.02ZM79.0361 163.939V171.5H77.4229V165.211H74.0322V171.5H72.4258V163.939H79.0361ZM85.1748 171.637C84.2178 171.637 83.4749 171.293 82.9463 170.604H82.8506C82.9144 171.243 82.9463 171.63 82.9463 171.767V174.863H81.3398V163.939H82.6387C82.6751 164.081 82.7503 164.418 82.8643 164.951H82.9463C83.4476 164.186 84.1995 163.803 85.2021 163.803C86.1455 163.803 86.8792 164.145 87.4033 164.828C87.932 165.512 88.1963 166.471 88.1963 167.706C88.1963 168.941 87.9274 169.905 87.3896 170.598C86.8564 171.29 86.1182 171.637 85.1748 171.637ZM84.7852 165.115C84.1471 165.115 83.68 165.302 83.3838 165.676C83.0921 166.049 82.9463 166.646 82.9463 167.467V167.706C82.9463 168.627 83.0921 169.294 83.3838 169.709C83.6755 170.119 84.1517 170.324 84.8125 170.324C85.3685 170.324 85.7969 170.096 86.0977 169.641C86.3984 169.185 86.5488 168.535 86.5488 167.692C86.5488 166.845 86.3984 166.204 86.0977 165.771C85.8014 165.334 85.3639 165.115 84.7852 165.115ZM93.3643 171.637C92.1885 171.637 91.2679 171.295 90.6025 170.611C89.9417 169.923 89.6113 168.978 89.6113 167.774C89.6113 166.539 89.9189 165.569 90.5342 164.862C91.1494 164.156 91.9948 163.803 93.0703 163.803C94.0684 163.803 94.8568 164.106 95.4355 164.712C96.0143 165.318 96.3037 166.152 96.3037 167.214V168.082H91.2656C91.2884 168.816 91.4867 169.381 91.8604 169.777C92.234 170.169 92.7604 170.365 93.4395 170.365C93.8861 170.365 94.3008 170.324 94.6836 170.242C95.071 170.156 95.4857 170.014 95.9277 169.818V171.124C95.5358 171.311 95.1393 171.443 94.7383 171.521C94.3372 171.598 93.8792 171.637 93.3643 171.637ZM93.0703 165.02C92.5599 165.02 92.1497 165.181 91.8398 165.505C91.5345 165.828 91.3522 166.3 91.293 166.92H94.7246C94.7155 166.296 94.5651 165.824 94.2734 165.505C93.9818 165.181 93.5807 165.02 93.0703 165.02ZM105.382 174.173H103.885V171.5H98.7031V174.173H97.2197V170.256H97.835C98.3727 169.486 98.7988 168.556 99.1133 167.467C99.4323 166.373 99.6214 165.197 99.6807 163.939H104.274V170.256H105.382V174.173ZM102.695 170.256V165.17H101.068C100.982 166.109 100.799 167.034 100.521 167.945C100.248 168.857 99.9131 169.627 99.5166 170.256H102.695ZM113.346 165.874C113.346 166.767 112.824 167.307 111.78 167.494V167.549C112.364 167.617 112.81 167.802 113.12 168.103C113.43 168.403 113.585 168.793 113.585 169.271C113.585 169.987 113.312 170.538 112.765 170.926C112.222 171.309 111.432 171.5 110.393 171.5H106.783V163.939H110.379C112.357 163.939 113.346 164.584 113.346 165.874ZM111.938 169.176C111.938 168.811 111.796 168.554 111.514 168.403C111.231 168.248 110.807 168.171 110.242 168.171H108.39V170.311H110.283C111.386 170.311 111.938 169.932 111.938 169.176ZM111.739 166.011C111.739 165.71 111.621 165.493 111.384 165.361C111.151 165.225 110.803 165.156 110.338 165.156H108.39V166.975H110.099C110.636 166.975 111.044 166.906 111.322 166.77C111.6 166.628 111.739 166.375 111.739 166.011ZM119.977 171.5L119.655 170.447H119.601C119.236 170.908 118.869 171.222 118.5 171.391C118.131 171.555 117.657 171.637 117.078 171.637C116.335 171.637 115.754 171.436 115.335 171.035C114.92 170.634 114.713 170.067 114.713 169.333C114.713 168.554 115.002 167.966 115.581 167.569C116.16 167.173 117.042 166.956 118.227 166.92L119.532 166.879V166.476C119.532 165.993 119.418 165.632 119.19 165.396C118.967 165.154 118.618 165.033 118.145 165.033C117.757 165.033 117.386 165.09 117.03 165.204C116.675 165.318 116.333 165.452 116.005 165.607L115.485 164.459C115.896 164.245 116.344 164.083 116.832 163.974C117.32 163.86 117.78 163.803 118.213 163.803C119.174 163.803 119.899 164.012 120.387 164.432C120.879 164.851 121.125 165.509 121.125 166.407V171.5H119.977ZM117.584 170.406C118.167 170.406 118.634 170.244 118.985 169.921C119.341 169.593 119.519 169.135 119.519 168.547V167.891L118.548 167.932C117.791 167.959 117.24 168.087 116.894 168.314C116.552 168.538 116.381 168.882 116.381 169.347C116.381 169.684 116.481 169.946 116.682 170.133C116.882 170.315 117.183 170.406 117.584 170.406ZM127.202 171.637C126.245 171.637 125.502 171.293 124.974 170.604H124.878C124.942 171.243 124.974 171.63 124.974 171.767V174.863H123.367V163.939H124.666C124.702 164.081 124.778 164.418 124.892 164.951H124.974C125.475 164.186 126.227 163.803 127.229 163.803C128.173 163.803 128.907 164.145 129.431 164.828C129.959 165.512 130.224 166.471 130.224 167.706C130.224 168.941 129.955 169.905 129.417 170.598C128.884 171.29 128.146 171.637 127.202 171.637ZM126.812 165.115C126.174 165.115 125.707 165.302 125.411 165.676C125.119 166.049 124.974 166.646 124.974 167.467V167.706C124.974 168.627 125.119 169.294 125.411 169.709C125.703 170.119 126.179 170.324 126.84 170.324C127.396 170.324 127.824 170.096 128.125 169.641C128.426 169.185 128.576 168.535 128.576 167.692C128.576 166.845 128.426 166.204 128.125 165.771C127.829 165.334 127.391 165.115 126.812 165.115ZM133.628 163.939V167.815C133.628 168.267 133.591 168.93 133.519 169.805L137.312 163.939H139.274V171.5H137.729V167.692C137.729 167.483 137.741 167.143 137.764 166.674C137.791 166.204 137.814 165.863 137.832 165.648L134.052 171.5H132.09V163.939H133.628ZM147.245 163.939V165.197H144.784V171.5H143.171V165.197H140.71V163.939H147.245ZM152.003 171.637C150.827 171.637 149.907 171.295 149.241 170.611C148.58 169.923 148.25 168.978 148.25 167.774C148.25 166.539 148.558 165.569 149.173 164.862C149.788 164.156 150.633 163.803 151.709 163.803C152.707 163.803 153.495 164.106 154.074 164.712C154.653 165.318 154.942 166.152 154.942 167.214V168.082H149.904C149.927 168.816 150.125 169.381 150.499 169.777C150.873 170.169 151.399 170.365 152.078 170.365C152.525 170.365 152.939 170.324 153.322 170.242C153.71 170.156 154.124 170.014 154.566 169.818V171.124C154.174 171.311 153.778 171.443 153.377 171.521C152.976 171.598 152.518 171.637 152.003 171.637ZM151.709 165.02C151.199 165.02 150.788 165.181 150.479 165.505C150.173 165.828 149.991 166.3 149.932 166.92H153.363C153.354 166.296 153.204 165.824 152.912 165.505C152.62 165.181 152.219 165.02 151.709 165.02ZM162.981 171.5H161.361V165.197H159.276C159.149 166.82 158.976 168.087 158.757 168.998C158.543 169.91 158.26 170.575 157.909 170.994C157.563 171.413 157.112 171.623 156.556 171.623C156.205 171.623 155.911 171.573 155.674 171.473V170.215C155.842 170.279 156.011 170.311 156.18 170.311C156.645 170.311 157.009 169.789 157.273 168.745C157.542 167.697 157.752 166.095 157.902 163.939H162.981V171.5ZM166.892 166.961H168.785C170.895 166.961 171.95 167.69 171.95 169.148C171.95 169.919 171.681 170.504 171.144 170.905C170.606 171.302 169.82 171.5 168.785 171.5H165.285V163.939H166.892V166.961ZM170.337 169.189C170.337 168.811 170.193 168.547 169.906 168.396C169.619 168.246 169.214 168.171 168.689 168.171H166.892V170.311H168.717C169.245 170.311 169.646 170.215 169.92 170.023C170.198 169.832 170.337 169.554 170.337 169.189ZM175.341 163.939V166.975H178.902V163.939H180.509V171.5H178.902V168.239H175.341V171.5H173.734V163.939H175.341ZM184.419 166.961H185.95C187.007 166.961 187.789 167.143 188.295 167.508C188.801 167.872 189.054 168.419 189.054 169.148C189.054 169.928 188.789 170.516 188.261 170.912C187.737 171.304 186.966 171.5 185.95 171.5H182.812V163.939H184.419V166.961ZM187.461 169.189C187.461 168.811 187.32 168.547 187.037 168.396C186.759 168.246 186.358 168.171 185.834 168.171H184.419V170.311H185.629C186.276 170.311 186.743 170.219 187.03 170.037C187.317 169.855 187.461 169.572 187.461 169.189ZM191.856 171.5H190.243V163.939H191.856V171.5ZM195.842 167.638L193.306 163.939H195.138L196.86 166.585L198.597 163.939H200.415L197.872 167.638L200.545 171.5H198.727L196.86 168.67L195.001 171.5H193.183L195.842 167.638ZM91.7988 190.5H90.1787V184.197H88.0938C87.9661 185.82 87.793 187.087 87.5742 187.998C87.36 188.91 87.0775 189.575 86.7266 189.994C86.3802 190.413 85.929 190.623 85.373 190.623C85.0221 190.623 84.7282 190.573 84.4912 190.473V189.215C84.6598 189.279 84.8285 189.311 84.9971 189.311C85.4619 189.311 85.8265 188.789 86.0908 187.745C86.3597 186.697 86.5693 185.095 86.7197 182.939H91.7988V190.5ZM98.833 190.5L98.5117 189.447H98.457C98.0924 189.908 97.7256 190.222 97.3564 190.391C96.9873 190.555 96.5133 190.637 95.9346 190.637C95.1917 190.637 94.6107 190.436 94.1914 190.035C93.7767 189.634 93.5693 189.067 93.5693 188.333C93.5693 187.554 93.8587 186.966 94.4375 186.569C95.0163 186.173 95.8981 185.956 97.083 185.92L98.3887 185.879V185.476C98.3887 184.993 98.2747 184.632 98.0469 184.396C97.8236 184.154 97.4749 184.033 97.001 184.033C96.6136 184.033 96.2422 184.09 95.8867 184.204C95.5312 184.318 95.1895 184.452 94.8613 184.607L94.3418 183.459C94.752 183.245 95.2008 183.083 95.6885 182.974C96.1761 182.86 96.6364 182.803 97.0693 182.803C98.0309 182.803 98.7555 183.012 99.2432 183.432C99.7354 183.851 99.9814 184.509 99.9814 185.407V190.5H98.833ZM96.4404 189.406C97.0238 189.406 97.4909 189.244 97.8418 188.921C98.1973 188.593 98.375 188.135 98.375 187.547V186.891L97.4043 186.932C96.6478 186.959 96.0964 187.087 95.75 187.314C95.4082 187.538 95.2373 187.882 95.2373 188.347C95.2373 188.684 95.3376 188.946 95.5381 189.133C95.7386 189.315 96.0394 189.406 96.4404 189.406ZM101.786 185.961C101.786 184.275 102.071 182.978 102.641 182.071C103.215 181.164 104.126 180.581 105.375 180.321C106.318 180.13 107.405 179.943 108.636 179.761L108.861 181.176C107.367 181.404 106.273 181.581 105.58 181.709C104.865 181.841 104.347 182.135 104.028 182.591C103.714 183.047 103.532 183.732 103.481 184.648H103.584C103.844 184.27 104.183 183.979 104.603 183.773C105.022 183.564 105.471 183.459 105.949 183.459C106.879 183.459 107.604 183.753 108.123 184.341C108.643 184.929 108.902 185.754 108.902 186.815C108.902 188.032 108.586 188.973 107.952 189.639C107.323 190.304 106.451 190.637 105.334 190.637C104.227 190.637 103.358 190.227 102.729 189.406C102.101 188.586 101.786 187.438 101.786 185.961ZM105.443 189.324C106.637 189.324 107.234 188.54 107.234 186.973C107.234 185.46 106.694 184.703 105.614 184.703C105.318 184.703 105.031 184.767 104.753 184.895C104.475 185.022 104.217 185.191 103.98 185.4C103.748 185.61 103.568 185.826 103.44 186.05C103.44 187.125 103.611 187.941 103.953 188.497C104.295 189.049 104.792 189.324 105.443 189.324ZM117.461 186.706C117.461 187.941 117.144 188.905 116.511 189.598C115.877 190.29 114.995 190.637 113.865 190.637C113.159 190.637 112.535 190.477 111.992 190.158C111.45 189.839 111.033 189.381 110.741 188.784C110.45 188.187 110.304 187.494 110.304 186.706C110.304 185.48 110.618 184.523 111.247 183.835C111.876 183.147 112.762 182.803 113.906 182.803C115 182.803 115.866 183.156 116.504 183.862C117.142 184.564 117.461 185.512 117.461 186.706ZM111.958 186.706C111.958 188.451 112.603 189.324 113.893 189.324C115.169 189.324 115.807 188.451 115.807 186.706C115.807 184.979 115.164 184.115 113.879 184.115C113.204 184.115 112.715 184.339 112.409 184.785C112.108 185.232 111.958 185.872 111.958 186.706ZM123.148 190.637C122.191 190.637 121.449 190.293 120.92 189.604H120.824C120.888 190.243 120.92 190.63 120.92 190.767V193.863H119.313V182.939H120.612C120.649 183.081 120.724 183.418 120.838 183.951H120.92C121.421 183.186 122.173 182.803 123.176 182.803C124.119 182.803 124.853 183.145 125.377 183.828C125.906 184.512 126.17 185.471 126.17 186.706C126.17 187.941 125.901 188.905 125.363 189.598C124.83 190.29 124.092 190.637 123.148 190.637ZM122.759 184.115C122.121 184.115 121.654 184.302 121.357 184.676C121.066 185.049 120.92 185.646 120.92 186.467V186.706C120.92 187.627 121.066 188.294 121.357 188.709C121.649 189.119 122.125 189.324 122.786 189.324C123.342 189.324 123.771 189.096 124.071 188.641C124.372 188.185 124.522 187.535 124.522 186.692C124.522 185.845 124.372 185.204 124.071 184.771C123.775 184.334 123.338 184.115 122.759 184.115ZM132.767 190.5L132.445 189.447H132.391C132.026 189.908 131.659 190.222 131.29 190.391C130.921 190.555 130.447 190.637 129.868 190.637C129.125 190.637 128.544 190.436 128.125 190.035C127.71 189.634 127.503 189.067 127.503 188.333C127.503 187.554 127.792 186.966 128.371 186.569C128.95 186.173 129.832 185.956 131.017 185.92L132.322 185.879V185.476C132.322 184.993 132.208 184.632 131.98 184.396C131.757 184.154 131.409 184.033 130.935 184.033C130.547 184.033 130.176 184.09 129.82 184.204C129.465 184.318 129.123 184.452 128.795 184.607L128.275 183.459C128.686 183.245 129.134 183.083 129.622 182.974C130.11 182.86 130.57 182.803 131.003 182.803C131.965 182.803 132.689 183.012 133.177 183.432C133.669 183.851 133.915 184.509 133.915 185.407V190.5H132.767ZM130.374 189.406C130.957 189.406 131.424 189.244 131.775 188.921C132.131 188.593 132.309 188.135 132.309 187.547V186.891L131.338 186.932C130.581 186.959 130.03 187.087 129.684 187.314C129.342 187.538 129.171 187.882 129.171 188.347C129.171 188.684 129.271 188.946 129.472 189.133C129.672 189.315 129.973 189.406 130.374 189.406ZM141.838 182.939V184.197H139.377V190.5H137.764V184.197H135.303V182.939H141.838ZM150 186.706C150 187.941 149.683 188.905 149.05 189.598C148.416 190.29 147.535 190.637 146.404 190.637C145.698 190.637 145.074 190.477 144.531 190.158C143.989 189.839 143.572 189.381 143.28 188.784C142.989 188.187 142.843 187.494 142.843 186.706C142.843 185.48 143.157 184.523 143.786 183.835C144.415 183.147 145.301 182.803 146.445 182.803C147.539 182.803 148.405 183.156 149.043 183.862C149.681 184.564 150 185.512 150 186.706ZM144.497 186.706C144.497 188.451 145.142 189.324 146.432 189.324C147.708 189.324 148.346 188.451 148.346 186.706C148.346 184.979 147.703 184.115 146.418 184.115C145.743 184.115 145.254 184.339 144.948 184.785C144.647 185.232 144.497 185.872 144.497 186.706ZM155.688 190.637C154.73 190.637 153.988 190.293 153.459 189.604H153.363C153.427 190.243 153.459 190.63 153.459 190.767V193.863H151.853V182.939H153.151C153.188 183.081 153.263 183.418 153.377 183.951H153.459C153.96 183.186 154.712 182.803 155.715 182.803C156.658 182.803 157.392 183.145 157.916 183.828C158.445 184.512 158.709 185.471 158.709 186.706C158.709 187.941 158.44 188.905 157.902 189.598C157.369 190.29 156.631 190.637 155.688 190.637ZM155.298 184.115C154.66 184.115 154.193 184.302 153.896 184.676C153.605 185.049 153.459 185.646 153.459 186.467V186.706C153.459 187.627 153.605 188.294 153.896 188.709C154.188 189.119 154.664 189.324 155.325 189.324C155.881 189.324 156.31 189.096 156.61 188.641C156.911 188.185 157.062 187.535 157.062 186.692C157.062 185.845 156.911 185.204 156.61 184.771C156.314 184.334 155.877 184.115 155.298 184.115ZM162.182 182.939V185.975H165.743V182.939H167.35V190.5H165.743V187.239H162.182V190.5H160.575V182.939H162.182ZM171.26 185.961H172.791C173.848 185.961 174.63 186.143 175.136 186.508C175.642 186.872 175.895 187.419 175.895 188.148C175.895 188.928 175.63 189.516 175.102 189.912C174.577 190.304 173.807 190.5 172.791 190.5H169.653V182.939H171.26V185.961ZM174.302 188.189C174.302 187.811 174.16 187.547 173.878 187.396C173.6 187.246 173.199 187.171 172.675 187.171H171.26V189.311H172.47C173.117 189.311 173.584 189.219 173.871 189.037C174.158 188.855 174.302 188.572 174.302 188.189ZM178.697 190.5H177.084V182.939H178.697V190.5ZM182.683 186.638L180.146 182.939H181.979L183.701 185.585L185.438 182.939H187.256L184.713 186.638L187.386 190.5H185.567L183.701 187.67L181.842 190.5H180.023L182.683 186.638ZM98.71 201.939V205.815C98.71 206.267 98.6735 206.93 98.6006 207.805L102.395 201.939H104.356V209.5H102.812V205.692C102.812 205.483 102.823 205.143 102.846 204.674C102.873 204.204 102.896 203.863 102.914 203.648L99.1338 209.5H97.1719V201.939H98.71ZM109.695 209.637C108.551 209.637 107.681 209.304 107.084 208.639C106.492 207.969 106.195 207.009 106.195 205.761C106.195 204.489 106.505 203.512 107.125 202.828C107.749 202.145 108.649 201.803 109.825 201.803C110.623 201.803 111.34 201.951 111.979 202.247L111.493 203.539C110.814 203.275 110.254 203.143 109.812 203.143C108.504 203.143 107.85 204.011 107.85 205.747C107.85 206.595 108.011 207.233 108.335 207.661C108.663 208.085 109.142 208.297 109.771 208.297C110.486 208.297 111.163 208.119 111.801 207.764V209.165C111.514 209.334 111.206 209.454 110.878 209.527C110.554 209.6 110.16 209.637 109.695 209.637ZM120.188 201.939V209.5H118.575V203.211H115.185V209.5H113.578V201.939H120.188ZM124.099 204.961H125.63C126.687 204.961 127.469 205.143 127.975 205.508C128.48 205.872 128.733 206.419 128.733 207.148C128.733 207.928 128.469 208.516 127.94 208.912C127.416 209.304 126.646 209.5 125.63 209.5H122.492V201.939H124.099V204.961ZM127.141 207.189C127.141 206.811 126.999 206.547 126.717 206.396C126.439 206.246 126.038 206.171 125.514 206.171H124.099V208.311H125.309C125.956 208.311 126.423 208.219 126.71 208.037C126.997 207.855 127.141 207.572 127.141 207.189ZM131.536 209.5H129.923V201.939H131.536V209.5ZM139.521 201.939V203.197H137.06V209.5H135.446V203.197H132.985V201.939H139.521ZM145.707 209.5L145.386 208.447H145.331C144.966 208.908 144.6 209.222 144.23 209.391C143.861 209.555 143.387 209.637 142.809 209.637C142.066 209.637 141.485 209.436 141.065 209.035C140.651 208.634 140.443 208.067 140.443 207.333C140.443 206.554 140.733 205.966 141.312 205.569C141.89 205.173 142.772 204.956 143.957 204.92L145.263 204.879V204.476C145.263 203.993 145.149 203.632 144.921 203.396C144.698 203.154 144.349 203.033 143.875 203.033C143.488 203.033 143.116 203.09 142.761 203.204C142.405 203.318 142.063 203.452 141.735 203.607L141.216 202.459C141.626 202.245 142.075 202.083 142.562 201.974C143.05 201.86 143.51 201.803 143.943 201.803C144.905 201.803 145.63 202.012 146.117 202.432C146.609 202.851 146.855 203.509 146.855 204.407V209.5H145.707ZM143.314 208.406C143.898 208.406 144.365 208.244 144.716 207.921C145.071 207.593 145.249 207.135 145.249 206.547V205.891L144.278 205.932C143.522 205.959 142.97 206.087 142.624 206.314C142.282 206.538 142.111 206.882 142.111 207.347C142.111 207.684 142.212 207.946 142.412 208.133C142.613 208.315 142.913 208.406 143.314 208.406ZM150.704 201.939V204.975H154.266V201.939H155.872V209.5H154.266V206.239H150.704V209.5H149.098V201.939H150.704ZM159.714 201.939V205.815C159.714 206.267 159.677 206.93 159.604 207.805L163.398 201.939H165.36V209.5H163.815V205.692C163.815 205.483 163.827 205.143 163.85 204.674C163.877 204.204 163.9 203.863 163.918 203.648L160.138 209.5H158.176V201.939H159.714ZM169.188 201.939V205.815C169.188 206.267 169.152 206.93 169.079 207.805L172.873 201.939H174.835V209.5H173.29V205.692C173.29 205.483 173.301 205.143 173.324 204.674C173.352 204.204 173.374 203.863 173.393 203.648L169.612 209.5H167.65V201.939H169.188ZM171.191 201.017C170.225 201.017 169.517 200.843 169.065 200.497C168.619 200.146 168.37 199.563 168.32 198.747H169.776C169.804 199.075 169.865 199.33 169.961 199.513C170.061 199.695 170.202 199.827 170.385 199.909C170.572 199.987 170.854 200.025 171.232 200.025C171.679 200.025 172.019 199.927 172.251 199.731C172.483 199.531 172.625 199.203 172.675 198.747H174.158C174.09 199.531 173.814 200.105 173.331 200.47C172.848 200.834 172.135 201.017 171.191 201.017Z" fill="white"/>
<circle cx="25" cy="233" r="25" fill="#7C090C"/>
<path d="M27.0586 241H23.4375V231.086L23.4727 229.457L23.5312 227.676C22.9297 228.277 22.5117 228.672 22.2773 228.859L20.3086 230.441L18.5625 228.262L24.082 223.867H27.0586V241Z" fill="white"/>
<path d="M104.468 35.31H105.513V38.2564V58.8458H104.538C103.436 58.8458 102.543 59.7333 102.543 60.8282C102.543 61.9231 103.436 62.8106 104.538 62.8106H105.513V75.0839C105.513 76.5436 106.704 77.7271 108.173 77.7271H116.295C117.764 77.7271 118.955 76.5436 118.955 75.0839V62.8106H133.34V91.7532H138.66V74.5938H153.045V86.5376C153.045 87.9974 154.236 89.1808 155.706 89.1808H163.827C165.296 89.1808 166.487 87.9974 166.487 86.5376V74.5938H167.551C168.653 74.5938 169.546 73.7061 169.546 72.6114C169.546 71.5165 168.653 70.629 167.551 70.629H166.487V46.7636H167.533C169.002 46.7636 170.193 45.5803 170.193 44.1204V42.2803C170.193 40.8204 169.002 39.6371 167.533 39.6371H164.543C164.573 39.4999 164.588 39.3576 164.588 39.2118C164.588 38.0861 163.67 37.1735 162.537 37.1735C161.404 37.1735 160.485 38.0861 160.485 39.2118C160.485 39.3578 160.501 39.4999 160.53 39.6371H152C150.53 39.6371 149.34 40.8204 149.34 42.2803V44.1204C149.34 45.5803 150.53 46.7636 152 46.7636H153.045V49.71V70.6289H138.66V21.6432C138.66 20.1833 137.469 19 136 19C134.531 19 133.34 20.1833 133.34 21.6432V58.8458H118.955V35.31H120C121.469 35.31 122.66 34.1265 122.66 32.6668V30.8267C122.66 29.3668 121.469 28.1835 120 28.1835H116.996C117.025 28.0463 117.041 27.904 117.041 27.7582C117.041 26.6325 116.122 25.7199 114.989 25.7199C113.857 25.7199 112.938 26.6325 112.938 27.7582C112.938 27.904 112.954 28.0463 112.983 28.1835H104.468C102.999 28.1835 101.807 29.3668 101.807 30.8267V32.6668C101.807 34.1265 102.998 35.31 104.468 35.31ZM157.01 66.6354C157.158 66.6689 157.311 66.6871 157.469 66.6871C158.602 66.6871 159.52 65.7744 159.52 64.6488C159.52 63.5231 158.602 62.6104 157.469 62.6104C157.311 62.6104 157.158 62.6286 157.01 62.6621V59.6197H162.522V70.629H157.01V66.6354ZM157.01 74.5938H162.522V76.1032C161.843 76.1114 161.295 76.6597 161.295 77.336C161.295 78.0122 161.843 78.5606 162.522 78.5688V85.1081H157.01V74.5938ZM109.478 55.1851C109.621 55.2164 109.769 55.2335 109.922 55.2335C111.055 55.2335 111.973 54.3208 111.973 53.1951C111.973 52.0694 111.055 51.1568 109.922 51.1568C109.769 51.1568 109.621 51.1738 109.478 51.2051V48.1663H114.989V58.8461H109.478V55.1851V55.1851ZM109.478 62.8106H114.989V64.6488C114.304 64.6488 113.748 65.201 113.748 65.8822C113.748 66.5635 114.304 67.1157 114.989 67.1157V73.6543H109.478V62.8106V62.8106Z" fill="white"/>
<path d="M172 101.004C172 98.0849 169.618 95.718 166.68 95.718H138.66H133.34H105.32C102.382 95.718 100 98.0849 100 101.004V104H172V101.004Z" fill="white"/>
<path d="M112.234 71.5771C112.92 71.5771 113.475 71.0248 113.475 70.3436C113.475 69.6624 112.92 69.1101 112.234 69.1101C111.548 69.1101 110.993 69.6624 110.993 70.3436C110.993 71.0248 111.548 71.5771 112.234 71.5771Z" fill="white"/>
<path d="M108.641 23.6815C109.774 23.6815 110.692 22.7689 110.692 21.6432C110.692 20.5175 109.774 19.6049 108.641 19.6049C107.508 19.6049 106.589 20.5175 106.589 21.6432C106.589 22.7689 107.508 23.6815 108.641 23.6815Z" fill="white"/>
<path d="M159.781 83.0308C160.467 83.0308 161.023 82.4786 161.023 81.7973C161.023 81.1161 160.467 80.5639 159.781 80.5639C159.096 80.5639 158.54 81.1161 158.54 81.7973C158.54 82.4786 159.096 83.0308 159.781 83.0308Z" fill="white"/>
<path d="M156.188 35.1353C157.321 35.1353 158.239 34.2227 158.239 33.097C158.239 31.9712 157.321 31.0586 156.188 31.0586C155.055 31.0586 154.137 31.9712 154.137 33.097C154.137 34.2227 155.055 35.1353 156.188 35.1353Z" fill="white"/>
</svg>
