<svg width="65" height="65" viewBox="0 0 65 65" fill="none" xmlns="http://www.w3.org/2000/svg">
<circle cx="32.5" cy="32.5" r="32.5" fill="#DB8284"/>
<circle cx="32.5" cy="32.5" r="30.5" fill="#BE1B1F"/>
<path d="M50.9824 42.9894C51.0608 43.6067 50.8777 44.1434 50.434 44.5995L45.2245 49.9129C44.9895 50.1812 44.6827 50.4095 44.3041 50.5972C43.9254 50.7851 43.5534 50.9059 43.1879 50.9595C43.1618 50.9595 43.0833 50.9664 42.9527 50.9798C42.8223 50.9932 42.6525 51 42.4436 51C41.9474 51 41.1443 50.9128 40.0345 50.7383C38.9247 50.5638 37.5669 50.1343 35.9611 49.4501C34.3549 48.7658 32.5336 47.7392 30.4969 46.3707C28.4601 45.0023 26.2927 43.1236 23.9948 40.7351C22.1669 38.8834 20.6523 37.1122 19.4511 35.4216C18.2499 33.7309 17.2838 32.1677 16.5526 30.732C15.8214 29.2962 15.273 27.9947 14.9074 26.8273C14.5418 25.6599 14.2938 24.6536 14.1632 23.8082C14.0326 22.9629 13.9804 22.2987 14.0065 21.8157C14.0326 21.3326 14.0457 21.0643 14.0457 21.0106C14.0979 20.6349 14.2154 20.2525 14.3982 19.8633C14.581 19.4742 14.803 19.1589 15.0641 18.9174L20.2736 13.5636C20.6392 13.1879 21.057 13 21.527 13C21.8665 13 22.1668 13.1006 22.4279 13.3019C22.6891 13.5032 22.911 13.7514 23.0938 14.0466L27.2849 22.2182C27.5199 22.6476 27.5852 23.1172 27.4808 23.6271C27.3763 24.137 27.1544 24.5664 26.8149 24.9152L24.8956 26.8877C24.8434 26.9414 24.7977 27.0286 24.7585 27.1493C24.7193 27.2701 24.6998 27.3707 24.6998 27.4512C24.8042 28.0148 25.0392 28.6589 25.4048 29.3834C25.7182 30.0275 26.2012 30.8125 26.8541 31.7383C27.5069 32.6642 28.4339 33.7308 29.6351 34.9385C30.8102 36.173 31.8547 37.1323 32.7686 37.8168C33.6824 38.5008 34.4464 39.0042 35.0601 39.3262C35.6738 39.6483 36.1438 39.8428 36.4701 39.9097L36.9596 40.0104C37.0118 40.0104 37.0969 39.9902 37.2143 39.95C37.3318 39.9097 37.4167 39.8628 37.4689 39.8091L39.7015 37.4743C40.1718 37.045 40.7199 36.8303 41.3467 36.8303C41.7908 36.8303 42.1431 36.9108 42.4042 37.0719H42.4433L50.0029 41.6608C50.5515 42.01 50.8778 42.4526 50.9824 42.9894Z" fill="white"/>
</svg>
